<svg id="vector" xmlns="http://www.w3.org/2000/svg" width="72" height="72" viewBox="0 0 72.0 72.0"><path fill="#FFF5F5F5" d="M63,60H9c-1.6,0 -3,-1.3 -3,-3v0c0,-1.6 1.3,-3 3,-3h54c1.6,0 3,1.3 3,3v0C66,58.7 64.7,60 63,60z" id="path_0"/><path fill="#FFF5F5F5" d="M63,48H9c-1.6,0 -3,-1.3 -3,-3v0c0,-1.6 1.3,-3 3,-3h54c1.6,0 3,1.3 3,3v0C66,46.7 64.7,48 63,48z" id="path_1"/><path fill="#FFF5F5F5" d="M63,36H9c-1.6,0 -3,-1.3 -3,-3v0c0,-1.6 1.3,-3 3,-3h54c1.6,0 3,1.3 3,3v0C66,34.7 64.7,36 63,36z" id="path_2"/></svg>