<svg id="vector" xmlns="http://www.w3.org/2000/svg" width="72" height="72" viewBox="0 0 72.0 72.0"><path fill="#FFF5F5F5" d="M49.5,21c-1.7,0 -3.3,0.3 -4.8,0.7C41,15.9 34.4,12 27,12C15.4,12 6,21.4 6,33s9.4,21 21,21h22.5C58.6,54 66,46.6 66,37.5S58.6,21 49.5,21z" id="path_0"/><path fill="#FFFFFFFF" d="M44.7,64.5m-1.5,0a1.5,1.5 0,1 1,3 0a1.5,1.5 0,1 1,-3 0" id="path_1"/><path fill="#FFFFFFFF" d="M37.5,64.5m-1.5,0a1.5,1.5 0,1 1,3 0a1.5,1.5 0,1 1,-3 0" id="path_2"/><path fill="#FFFFFFFF" d="M30.3,64.5m-1.5,0a1.5,1.5 0,1 1,3 0a1.5,1.5 0,1 1,-3 0" id="path_3"/><path fill="#FFFFFFFF" d="M23.1,64.5m-1.5,0a1.5,1.5 0,1 1,3 0a1.5,1.5 0,1 1,-3 0" id="path_4"/><path fill="#FFFFFFFF" d="M48.3,60.9m-1.5,0a1.5,1.5 0,1 1,3 0a1.5,1.5 0,1 1,-3 0" id="path_5"/><path fill="#FFFFFFFF" d="M41.1,60.9m-1.5,0a1.5,1.5 0,1 1,3 0a1.5,1.5 0,1 1,-3 0" id="path_6"/><path fill="#FFFFFFFF" d="M33.9,60.9m-1.5,0a1.5,1.5 0,1 1,3 0a1.5,1.5 0,1 1,-3 0" id="path_7"/><path fill="#FFFFFFFF" d="M26.7,60.9m-1.5,0a1.5,1.5 0,1 1,3 0a1.5,1.5 0,1 1,-3 0" id="path_8"/><path fill="#FFFFFFFF" d="M15.9,64.5m-1.5,0a1.5,1.5 0,1 1,3 0a1.5,1.5 0,1 1,-3 0" id="path_9"/><path fill="#FFFFFFFF" d="M19.5,60.9m-1.5,0a1.5,1.5 0,1 1,3 0a1.5,1.5 0,1 1,-3 0" id="path_10"/><path fill="#FFFFFFFF" d="M44.7,57.3m-1.5,0a1.5,1.5 0,1 1,3 0a1.5,1.5 0,1 1,-3 0" id="path_11"/><path fill="#FFFFFFFF" d="M51.9,57.3m-1.5,0a1.5,1.5 0,1 1,3 0a1.5,1.5 0,1 1,-3 0" id="path_12"/><path fill="#FFFFFFFF" d="M51.9,64.5m-1.5,0a1.5,1.5 0,1 1,3 0a1.5,1.5 0,1 1,-3 0" id="path_13"/><path fill="#FFFFFFFF" d="M37.5,57.3m-1.5,0a1.5,1.5 0,1 1,3 0a1.5,1.5 0,1 1,-3 0" id="path_14"/><path fill="#FFFFFFFF" d="M30.3,57.3m-1.5,0a1.5,1.5 0,1 1,3 0a1.5,1.5 0,1 1,-3 0" id="path_15"/><path fill="#FFFFFFFF" d="M15.9,57.3m-1.5,0a1.5,1.5 0,1 1,3 0a1.5,1.5 0,1 1,-3 0" id="path_16"/><path fill="#FFFFFFFF" d="M55.5,60.9m-1.5,0a1.5,1.5 0,1 1,3 0a1.5,1.5 0,1 1,-3 0" id="path_17"/><path fill="#FFFFFFFF" d="M23.1,57.3m-1.5,0a1.5,1.5 0,1 1,3 0a1.5,1.5 0,1 1,-3 0" id="path_18"/></svg>