<?xml version="1.0" encoding="utf-8"?>
<!-- Generator: Adobe Illustrator 26.5.0, SVG Export Plug-In . SVG Version: 6.00 Build 0)  -->
<svg version="1.1" id="vector" xmlns="http://www.w3.org/2000/svg" xmlns:xlink="http://www.w3.org/1999/xlink" x="0px" y="0px"
	 viewBox="0 0 72 72" style="enable-background:new 0 0 72 72;" xml:space="preserve">
<style type="text/css">
	.st0{fill:#F5F5F5;}
</style>
<path id="path_0" class="st0" d="M63,51H9c-1.6,0-3-1.3-3-3l0,0c0-1.6,1.3-3,3-3h54c1.6,0,3,1.3,3,3l0,0C66,49.7,64.7,51,63,51z"/>
<path id="path_1" class="st0" d="M63,39H9c-1.6,0-3-1.3-3-3l0,0c0-1.6,1.3-3,3-3h54c1.6,0,3,1.3,3,3l0,0C66,37.7,64.7,39,63,39z"/>
<path id="path_2" class="st0" d="M63,27H9c-1.6,0-3-1.3-3-3l0,0c0-1.6,1.3-3,3-3h54c1.6,0,3,1.3,3,3l0,0C66,25.7,64.7,27,63,27z"/>
</svg>
