<?xml version="1.0" encoding="utf-8"?>
<!-- Generator: Adobe Illustrator 26.5.0, SVG Export Plug-In . SVG Version: 6.00 Build 0)  -->
<svg version="1.1" id="Layer_1" xmlns="http://www.w3.org/2000/svg" xmlns:xlink="http://www.w3.org/1999/xlink" x="0px" y="0px"
	 viewBox="0 0 32 32" style="enable-background:new 0 0 32 32;" xml:space="preserve">
<path d="M16,0c-0.6,0-1.1,0.5-1.1,1.1c0,0,0,0,0,0v0v29.7c0,0,0,0,0,0c0,0.6,0.5,1.1,1.1,1.1s1.1-0.5,1.1-1.1c0,0,0,0,0,0v0V1.2
	c0,0,0,0,0,0C17.1,0.5,16.6,0,16,0C16,0,16,0,16,0L16,0L16,0z"/>
<path d="M1.2,14.9C1.2,14.9,1.1,14.9,1.2,14.9C0.5,14.9,0,15.4,0,16s0.5,1.1,1.1,1.1c0,0,0,0,0,0h29.7c0,0,0,0,0,0
	c0.6,0,1.1-0.5,1.1-1.1s-0.5-1.1-1.1-1.1c0,0,0,0,0,0H1.2z"/>
</svg>
