<?xml version="1.0" encoding="utf-8"?>
<!-- Generator: Adobe Illustrator 26.5.0, SVG Export Plug-In . SVG Version: 6.00 Build 0)  -->
<svg version="1.1" id="Layer_1" xmlns="http://www.w3.org/2000/svg" xmlns:xlink="http://www.w3.org/1999/xlink" x="0px" y="0px"
	 viewBox="0 0 11.7 20" style="enable-background:new 0 0 11.7 20;" xml:space="preserve">
<style type="text/css">
	.st0{clip-path:url(#SVGID_00000058582443836020036120000006665966632452638624_);}
	.st1{fill:#FFFFFF;}
</style>
<g id="Group_173579" transform="translate(0 0)">
	<g>
		<g>
			<defs>
				<rect id="SVGID_1_" x="0" y="0" width="11.7" height="20"/>
			</defs>
			<clipPath id="SVGID_00000036211779080602277050000013216694364851368582_">
				<use xlink:href="#SVGID_1_"  style="overflow:visible;"/>
			</clipPath>
			
				<g id="Group_173020" transform="translate(0 0)" style="clip-path:url(#SVGID_00000036211779080602277050000013216694364851368582_);">
				<path id="Path_5016" class="st1" d="M0.5,8.8l8.3-8.2c0.7-0.7,1.8-0.7,2.5,0s0.7,1.8,0,2.5L3,11.2c-0.7,0.7-1.8,0.7-2.5,0
					S-0.2,9.4,0.5,8.8L0.5,8.8"/>
				<path id="Path_5017" class="st1" d="M3,8.8l8.2,8.2c0.7,0.7,0.7,1.8,0,2.5l0,0c-0.7,0.7-1.8,0.7-2.5,0l-8.3-8.3
					c-0.7-0.7-0.7-1.8,0-2.5C1.2,8.1,2.3,8.1,3,8.8"/>
			</g>
		</g>
	</g>
</g>
</svg>
