<?xml version="1.0" encoding="utf-8"?>
<!-- Generator: Adobe Illustrator 26.5.0, SVG Export Plug-In . SVG Version: 6.00 Build 0)  -->
<svg version="1.1" id="Layer_1" xmlns="http://www.w3.org/2000/svg" xmlns:xlink="http://www.w3.org/1999/xlink" x="0px" y="0px"
	 viewBox="0 0 541.7 541.7" style="enable-background:new 0 0 541.7 541.7;" xml:space="preserve">
<style type="text/css">
	.st0{fill-rule:evenodd;clip-rule:evenodd;}
</style>
<g>
	<path class="st0" d="M270.8,151.3L132.2,12.8c-13.7-13.7-35.8-13.7-49.5,0l-70,70c-13.7,13.7-13.7,35.8,0,49.5l138.6,138.6
		L29.8,392.3c-5.3,5.3-8.7,12.1-9.9,19.5L7.4,494.4c-1.7,11,2,22.1,9.8,30c7.9,7.9,19,11.5,30,9.8l82.6-12.6
		c7.4-1.1,14.2-4.6,19.5-9.9l121.5-121.5l138.6,138.6c13.7,13.7,35.8,13.7,49.5,0l70-70c13.7-13.7,13.7-35.8,0-49.5L390.3,270.8
		l138.6-138.6c13.7-13.7,13.7-35.8,0-49.5l-70-70c-13.7-13.7-35.8-13.7-49.5,0L270.8,151.3z M422.5,509l3.4,3.4
		c4.6,4.6,11.9,4.6,16.5,0l70-70c4.6-4.6,4.6-11.9,0-16.5L373.8,287.3l-86.5,86.5l13.7,13.7l19.9-19.9c4.6-4.5,11.9-4.5,16.5,0
		c4.6,4.6,4.6,11.9,0,16.5L317.5,404l18.5,18.5l19.9-19.9c4.6-4.5,11.9-4.5,16.5,0c4.6,4.6,4.6,11.9,0,16.5L352.5,439l18.5,18.5
		l19.9-19.9c4.6-4.5,11.9-4.5,16.5,0c4.6,4.6,4.6,11.9,0,16.5L387.5,474l18.5,18.5l19.9-19.9c4.6-4.5,11.9-4.5,16.5,0
		c4.6,4.6,4.6,11.9,0,16.5L422.5,509z M40.7,430.6l70.4,70.4l-67.3,10.3c-3.7,0.6-7.4-0.7-10-3.3s-3.8-6.3-3.3-10L40.7,430.6z
		 M135.7,492.5l310.2-310.2l-86.5-86.5L49.2,406L135.7,492.5z M154.2,240.7l13.7,13.7l86.5-86.5L115.8,29.3
		c-4.6-4.6-11.9-4.6-16.5,0l-70,70c-4.6,4.6-4.6,11.9,0,16.5l3.4,3.4l19.9-19.9c4.6-4.6,11.9-4.6,16.5,0c4.5,4.6,4.5,11.9,0,16.5
		l-19.9,19.9l18.5,18.5l19.9-19.9c4.6-4.6,11.9-4.6,16.5,0c4.5,4.6,4.5,11.9,0,16.5l-19.9,19.9l18.5,18.5l19.9-19.9
		c4.6-4.6,11.9-4.6,16.5,0c4.5,4.6,4.5,11.9,0,16.5l-19.9,19.9l18.5,18.5l19.9-19.9c4.6-4.6,11.9-4.6,16.5,0
		c4.5,4.6,4.5,11.9,0,16.5L154.2,240.7z M462.3,165.8l-86.5-86.5l50.1-50.1c4.6-4.6,11.9-4.6,16.5,0l70,70c4.6,4.6,4.6,11.9,0,16.5
		L462.3,165.8z"/>
</g>
</svg>
