<?xml version="1.0" encoding="utf-8"?>
<!-- Generator: Adobe Illustrator 26.5.0, SVG Export Plug-In . SVG Version: 6.00 Build 0)  -->
<svg version="1.1" id="Layer_1" xmlns="http://www.w3.org/2000/svg" xmlns:xlink="http://www.w3.org/1999/xlink" x="0px" y="0px"
	 viewBox="0 0 518 518" style="enable-background:new 0 0 518 518;" xml:space="preserve">
<style type="text/css">
	.st0{fill-rule:evenodd;clip-rule:evenodd;}
</style>
<path class="st0" d="M150.6,285.8l96.8,96.8V14c0-6.4,5.2-11.7,11.7-11.7s11.7,5.2,11.7,11.7v368.5l96.7-96.8
	c4.6-4.6,11.9-4.6,16.5,0c4.6,4.6,4.6,11.9,0,16.5L267.2,418.9c-4.6,4.6-11.9,4.6-16.5,0L134.1,302.2c-4.6-4.6-4.6-11.9,0-16.5
	C138.6,281.2,146,281.2,150.6,285.8L150.6,285.8z M25.7,270.7c0-6.4-5.2-11.7-11.7-11.7s-11.7,5.2-11.7,11.7v175
	c0,38.7,31.3,70,70,70h373.3c38.7,0,70-31.3,70-70v-175c0-6.4-5.2-11.7-11.7-11.7s-11.7,5.2-11.7,11.7v175
	c0,25.8-20.9,46.7-46.7,46.7H72.3c-25.8,0-46.7-20.9-46.7-46.7L25.7,270.7z"/>
</svg>
