<?xml version="1.0" encoding="utf-8"?>
<!-- Generator: Adobe Illustrator 26.5.0, SVG Export Plug-In . SVG Version: 6.00 Build 0)  -->
<svg version="1.1" id="Layer_1" xmlns="http://www.w3.org/2000/svg" xmlns:xlink="http://www.w3.org/1999/xlink" x="0px" y="0px"
	 viewBox="0 0 487 487" style="enable-background:new 0 0 487 487;" xml:space="preserve">
<g>
	<path d="M1.9,183.9c0.4,6.2,5.7,10.9,11.9,10.5c3-0.2,5.7-1.5,7.7-3.8c2-2.2,3-5.1,2.8-8.1c-2.3-36.3,10.7-71.9,36-98.1
		c23-23.7,54.6-37,87.6-36.9c24.9,0,55,16.4,86.9,47.4h0c4.9,4.8,12.7,4.8,17.6,0c25.7-26.3,60.8-41.4,97.6-42.2h0.8
		c28.5-0.2,55.9,11.2,75.8,31.6c23.2,24.2,36.1,56.5,36.1,90s-12.9,65.8-36.1,90L246.5,438c-1.9,1.9-5.1,1.9-7,0L116.3,319
		c-4.5-4.3-11.6-4.2-15.8,0.3c-4.3,4.5-4.2,11.5,0.3,15.8l123.2,119c5.1,5,11.9,7.8,19.1,7.8c7.1,0,14-2.8,19.1-7.8l180.6-173.9
		c27.3-28.4,42.6-66.3,42.6-105.8c0-39.4-15.3-77.3-42.6-105.8c-24-24.8-57.1-38.6-91.6-38.4c-39.8,0.2-78.2,15.2-107.6,42
		c-34.1-31.4-66.2-47.2-95.6-47.2c-39-0.1-76.4,15.7-103.6,43.7C14.6,99.5-0.8,141.3,1.9,183.9L1.9,183.9z"/>
	<path d="M77.5,273.7c3.9-0.1,7.6-2.2,9.5-5.6l18.3-29.6L130,278h0c2.2,3.6,6.3,5.6,10.6,5.2c4.2-0.4,7.8-3.2,9.4-7.1l32.6-84
		l30.1,119.1v0c1.1,4.5,4.9,7.9,9.6,8.4h1.3c4.2,0,8-2.3,9.9-6l37.4-71.6l14.3,25.5l0,0c2,3.5,5.7,5.6,9.7,5.6h52
		c6.2,0,11.2-5,11.2-11.2c0-6.2-5-11.2-11.2-11.2h-45.4l-21.2-37.9h0c-2-3.5-5.7-5.6-9.7-5.6c-4.4,0-8.4,2.5-10.2,6.5l-33.6,63.9
		l-31-124.7c-1.2-4.7-5.3-8.1-10.2-8.4c-4.9-0.3-9.3,2.6-11.1,7.1l-37.4,95.8l-22.4-35.9c-2-3.3-5.6-5.2-9.5-5.3
		c-3.9,0.1-7.6,2.2-9.5,5.6l-24.5,39.6H31.5c-6.2,0-11.2,5-11.2,11.2c0,6.2,5,11.2,11.2,11.2L77.5,273.7z"/>
</g>
</svg>
