<?xml version="1.0" encoding="utf-8"?>
<!-- Generator: Adobe Illustrator 26.5.0, SVG Export Plug-In . SVG Version: 6.00 Build 0)  -->
<svg version="1.1" id="Layer_1" xmlns="http://www.w3.org/2000/svg" xmlns:xlink="http://www.w3.org/1999/xlink" x="0px" y="0px"
	 viewBox="0 0 545.3 545.3" style="enable-background:new 0 0 545.3 545.3;" xml:space="preserve">
<style type="text/css">
	.st0{fill-rule:evenodd;clip-rule:evenodd;}
</style>
<g>
	<path class="st0" d="M331,74.7V39.3c0-19.3-15.7-35-35-35h-46.7c-19.3,0-35,15.7-35,35c0,11.4,0,24.9-0.1,35.3v0.1
		c0,4.9-3.1,9.3-7.8,10.9c0,0,0,0-0.1,0c-6.6,2.3-12.9,5-19.1,8c-4.5,2.2-9.8,1.3-13.3-2.3l-25-25c-6.6-6.6-15.5-10.2-24.7-10.2
		c-9.3,0-18.2,3.7-24.7,10.2l-33,33c-6.6,6.6-10.2,15.5-10.2,24.7c0,9.3,3.7,18.2,10.2,24.7c8.1,8.1,17.6,17.6,24.9,25
		c0,0,0,0,0.1,0.1c3.5,3.5,4.4,8.8,2.2,13.3c0,0,0,0,0,0.1c-3,6.2-5.6,12.6-7.9,19.2c-1.6,4.7-6.1,7.8-11,7.8H39.3
		c-19.3,0-35,15.7-35,35V296c0,19.3,15.7,35,35,35c11.4,0,24.9,0,35.3,0.1h0.1c4.9,0,9.3,3.1,10.9,7.8c0,0,0,0,0,0.1
		c2.3,6.6,5,12.9,8,19.1c2.2,4.5,1.3,9.8-2.3,13.3l-25,25c-6.6,6.6-10.2,15.5-10.2,24.7c0,9.3,3.7,18.2,10.2,24.7l33,33
		c6.6,6.6,15.5,10.2,24.7,10.2c9.3,0,18.2-3.7,24.7-10.2c8.1-8.1,17.6-17.6,25-24.9c0,0,0,0,0.1-0.1c3.5-3.5,8.8-4.4,13.3-2.2
		c0,0,0,0,0.1,0c6.2,3,12.6,5.6,19.2,7.9c4.7,1.6,7.8,6.1,7.8,11V506c0,19.3,15.7,35,35,35H296c19.3,0,35-15.7,35-35
		c0-11.4,0-24.9,0.1-35.3v-0.1c0-4.9,3.1-9.3,7.8-10.9c0,0,0,0,0.1,0c6.6-2.3,12.9-5,19.1-8c4.5-2.2,9.8-1.3,13.3,2.3l25,25
		c6.6,6.6,15.5,10.2,24.7,10.2c9.3,0,18.2-3.7,24.7-10.2l33-33c6.6-6.6,10.2-15.5,10.2-24.7c0-9.3-3.7-18.2-10.2-24.7
		c-8.1-8.1-17.6-17.6-24.9-25c0,0,0,0-0.1-0.1c-3.5-3.5-4.4-8.8-2.2-13.3c0,0,0,0,0-0.1c3-6.2,5.6-12.6,7.9-19.2
		c1.6-4.7,6.1-7.8,11-7.8H506c19.3,0,35-15.7,35-35v-46.7c0-19.3-15.7-35-35-35c-11.4,0-24.9,0-35.3-0.1h-0.1
		c-4.9,0-9.3-3.1-10.9-7.8c0,0,0,0,0-0.1c-2.3-6.6-5-12.9-8-19.1c-2.2-4.5-1.3-9.8,2.3-13.3l25-25c6.6-6.6,10.2-15.5,10.2-24.7
		c0-9.3-3.7-18.2-10.2-24.7l-33-33c-6.6-6.6-15.5-10.2-24.7-10.2c-9.3,0-18.2,3.7-24.7,10.2c-8.1,8.1-17.6,17.6-25,24.9
		c0,0,0,0-0.1,0.1c-3.5,3.5-8.8,4.4-13.3,2.2c0,0,0,0-0.1,0c-6.2-3-12.6-5.6-19.2-7.9C334.1,84.1,331,79.7,331,74.7L331,74.7z
		 M307.6,39.3v35.4c0,14.9,9.4,28.1,23.5,33c0,0,0,0,0.1,0c5.7,2,11.3,4.3,16.7,6.9c13.3,6.5,29.4,3.8,39.9-6.8
		c7.4-7.3,17-16.9,25.1-25c2.2-2.2,5.2-3.4,8.2-3.4c3.1,0,6.1,1.2,8.2,3.4l33,33c2.2,2.2,3.4,5.2,3.4,8.2c0,3.1-1.2,6.1-3.4,8.2
		l-25,25c-10.5,10.5-13.2,26.6-6.7,40c0,0,0,0,0,0.1c2.7,5.4,5,11,7,16.7c4.9,14,18.1,23.4,32.9,23.4c10.4,0.1,23.9,0.1,35.4,0.1
		c6.4,0,11.7,5.2,11.7,11.7V296c0,6.4-5.2,11.7-11.7,11.7h-35.4c-14.9,0-28.1,9.4-33,23.5c0,0,0,0,0,0.1c-2,5.7-4.3,11.3-6.9,16.7
		c-6.5,13.3-3.8,29.4,6.8,39.9c7.3,7.4,16.9,17,25,25.1c2.2,2.2,3.4,5.2,3.4,8.2c0,3.1-1.2,6.1-3.4,8.2l-33,33
		c-2.2,2.2-5.2,3.4-8.2,3.4c-3.1,0-6.1-1.2-8.2-3.4l-25-25c-10.5-10.5-26.6-13.2-40-6.7c0,0,0,0-0.1,0c-5.4,2.7-11,5-16.7,7
		c-14,4.9-23.4,18.1-23.4,32.9c-0.1,10.4-0.1,23.9-0.1,35.4c0,6.4-5.2,11.7-11.7,11.7h-46.7c-6.4,0-11.7-5.2-11.7-11.7v-35.4
		c0-14.9-9.4-28.1-23.5-33c0,0,0,0-0.1,0c-5.7-2-11.3-4.3-16.7-6.9c-13.3-6.5-29.4-3.8-39.9,6.8c-7.4,7.3-17,16.9-25.1,25
		c-2.2,2.2-5.2,3.4-8.2,3.4c-3.1,0-6.1-1.2-8.2-3.4l-33-33c-2.2-2.2-3.4-5.2-3.4-8.2c0-3.1,1.2-6.1,3.4-8.2l25-25
		c10.5-10.5,13.2-26.6,6.7-40c0,0,0,0,0-0.1c-2.7-5.4-5-11-7-16.7c-4.9-14-18.1-23.4-32.9-23.4c-10.4-0.1-23.9-0.1-35.4-0.1
		c-6.4,0-11.7-5.2-11.7-11.7v-46.7c0-6.4,5.2-11.7,11.7-11.7h35.4c14.9,0,28.1-9.4,33-23.5c0,0,0,0,0-0.1c2-5.7,4.3-11.3,6.9-16.7
		c6.5-13.3,3.8-29.4-6.8-39.9c-7.3-7.4-16.9-17-25-25.1c-2.2-2.2-3.4-5.2-3.4-8.2c0-3.1,1.2-6.1,3.4-8.2l33-33
		c2.2-2.2,5.2-3.4,8.2-3.4c3.1,0,6.1,1.2,8.2,3.4l25,25c10.5,10.5,26.6,13.2,40,6.7c0,0,0,0,0.1,0c5.4-2.7,11-5,16.7-7
		c14-4.9,23.4-18.1,23.4-32.9c0.1-10.4,0.1-23.9,0.1-35.4c0-6.4,5.2-11.7,11.7-11.7H296C302.4,27.6,307.6,32.9,307.6,39.3
		L307.6,39.3z"/>
	<path class="st0" d="M272.6,167.6c-57.9,0-105,47.1-105,105s47.1,105,105,105s105-47.1,105-105S330.6,167.6,272.6,167.6z
		 M272.6,191c45.1,0,81.7,36.6,81.7,81.7s-36.6,81.7-81.7,81.7S191,317.7,191,272.6S227.6,191,272.6,191z"/>
</g>
</svg>
