<?xml version="1.0" encoding="utf-8"?>
<!-- Generator: Adobe Illustrator 26.5.0, SVG Export Plug-In . SVG Version: 6.00 Build 0)  -->
<svg version="1.1" id="Layer_1" xmlns="http://www.w3.org/2000/svg" xmlns:xlink="http://www.w3.org/1999/xlink" x="0px" y="0px"
	 viewBox="0 0 532 532" style="enable-background:new 0 0 532 532;" xml:space="preserve">
<g>
	<path d="M252.1,5.6L73.5,184.2c-7.8,7.8-7.8,20.2,0,27.4c7.8,7.8,20.2,7.8,27.4,0L246.5,66.1l0,446.3c0,10.6,9,19.6,19.6,19.6
		s19.6-9,19.6-19.6V66.6l145.6,145.6c7.8,7.8,20.2,7.8,27.4,0c3.9-3.9,5.6-9,5.6-14s-1.7-10.1-5.6-14L280.1,5.6
		c-3.9-3.9-8.4-5.6-14-5.6S256.1,2.2,252.1,5.6L252.1,5.6z"/>
</g>
</svg>
