<?xml version="1.0" encoding="utf-8"?>
<!-- Generator: Adobe Illustrator 26.5.0, SVG Export Plug-In . SVG Version: 6.00 Build 0)  -->
<svg version="1.1" id="Layer_1" xmlns="http://www.w3.org/2000/svg" xmlns:xlink="http://www.w3.org/1999/xlink" x="0px" y="0px"
	 viewBox="0 0 20 11.7" style="enable-background:new 0 0 20 11.7;" xml:space="preserve">
<style type="text/css">
	.st0{clip-path:url(#SVGID_00000160870004920815874900000006364894652210136710_);}
	.st1{fill:#00091F;}
</style>
<g id="Group_173579" transform="translate(0 0)">
	<g>
		<defs>
			<rect id="SVGID_1_" width="20" height="11.7"/>
		</defs>
		<clipPath id="SVGID_00000104696328624470750090000011027028840042032283_">
			<use xlink:href="#SVGID_1_"  style="overflow:visible;"/>
		</clipPath>
		
			<g id="Group_173020" transform="translate(0 0)" style="clip-path:url(#SVGID_00000104696328624470750090000011027028840042032283_);">
			<path id="Path_5016" class="st1" d="M11.2,0.5l8.2,8.3c0.7,0.7,0.7,1.8,0,2.5c-0.7,0.7-1.8,0.7-2.5,0L8.8,3
				c-0.7-0.7-0.7-1.8,0-2.5C9.5-0.2,10.6-0.2,11.2,0.5L11.2,0.5"/>
			<path id="Path_5017" class="st1" d="M11.2,3L3,11.2c-0.7,0.7-1.8,0.7-2.5,0l0,0c-0.7-0.7-0.7-1.8,0-2.5l8.3-8.3
				c0.7-0.7,1.8-0.7,2.5,0C11.9,1.2,11.9,2.3,11.2,3"/>
		</g>
	</g>
</g>
</svg>
