<?xml version="1.0" encoding="utf-8"?>
<!-- Generator: Adobe Illustrator 26.5.0, SVG Export Plug-In . SVG Version: 6.00 Build 0)  -->
<svg version="1.1" id="Layer_1" xmlns="http://www.w3.org/2000/svg" xmlns:xlink="http://www.w3.org/1999/xlink" x="0px" y="0px"
	 viewBox="0 0 11.7 20" style="enable-background:new 0 0 11.7 20;" xml:space="preserve">
<style type="text/css">
	.st0{clip-path:url(#SVGID_00000068657157926337270340000004831963460227031946_);}
	.st1{fill:#FFFFFF;}
</style>
<g id="Group_173579" transform="translate(0 0)">
	<g>
		<g>
			<defs>
				<rect id="SVGID_1_" width="11.7" height="20"/>
			</defs>
			<clipPath id="SVGID_00000132810946909451573260000004594516790298692269_">
				<use xlink:href="#SVGID_1_"  style="overflow:visible;"/>
			</clipPath>
			
				<g id="Group_173020" transform="translate(0 0)" style="clip-path:url(#SVGID_00000132810946909451573260000004594516790298692269_);">
				<path id="Path_5016" class="st1" d="M11.2,11.2l-8.3,8.2c-0.7,0.7-1.8,0.7-2.5,0s-0.7-1.8,0-2.5l8.3-8.1c0.7-0.7,1.8-0.7,2.5,0
					S11.9,10.6,11.2,11.2L11.2,11.2"/>
				<path id="Path_5017" class="st1" d="M8.7,11.2L0.5,3c-0.7-0.7-0.7-1.8,0-2.5l0,0c0.7-0.7,1.8-0.7,2.5,0l8.3,8.3
					c0.7,0.7,0.7,1.8,0,2.5C10.5,11.9,9.4,11.9,8.7,11.2"/>
			</g>
		</g>
	</g>
</g>
</svg>
