<?xml version="1.0" encoding="utf-8"?>
<!-- Generator: Adobe Illustrator 26.5.0, SVG Export Plug-In . SVG Version: 6.00 Build 0)  -->
<svg version="1.1" id="Layer_1" xmlns="http://www.w3.org/2000/svg" xmlns:xlink="http://www.w3.org/1999/xlink" x="0px" y="0px"
	 viewBox="0 0 20 11.7" style="enable-background:new 0 0 20 11.7;" xml:space="preserve">
<style type="text/css">
	.st0{clip-path:url(#SVGID_00000134961004886361550370000001729315684807344039_);}
	.st1{fill:#FFFFFF;}
</style>
<g id="Group_173579" transform="translate(0 0)">
	<g>
		<g>
			<defs>
				<rect id="SVGID_1_" width="20" height="11.7"/>
			</defs>
			<clipPath id="SVGID_00000106122060283579738630000009624766909459707575_">
				<use xlink:href="#SVGID_1_"  style="overflow:visible;"/>
			</clipPath>
			
				<g id="Group_173020" transform="translate(0 0)" style="clip-path:url(#SVGID_00000106122060283579738630000009624766909459707575_);">
				<path id="Path_5016" class="st1" d="M8.8,11.2L0.6,2.9c-0.7-0.7-0.7-1.8,0-2.5s1.8-0.7,2.5,0l8.1,8.3c0.7,0.7,0.7,1.8,0,2.5
					S9.4,11.9,8.8,11.2L8.8,11.2"/>
				<path id="Path_5017" class="st1" d="M8.8,8.7L17,0.5c0.7-0.7,1.8-0.7,2.5,0l0,0c0.7,0.7,0.7,1.8,0,2.5l-8.3,8.3
					c-0.7,0.7-1.8,0.7-2.5,0C8.1,10.5,8.1,9.4,8.8,8.7"/>
			</g>
		</g>
	</g>
</g>
</svg>
