<?xml version="1.0" encoding="utf-8"?>
<!-- Generator: Adobe Illustrator 26.5.0, SVG Export Plug-In . SVG Version: 6.00 Build 0)  -->
<svg version="1.1" xmlns="http://www.w3.org/2000/svg" xmlns:xlink="http://www.w3.org/1999/xlink" x="0px" y="0px"
	 viewBox="0 0 95.1 95" style="enable-background:new 0 0 95.1 95;" xml:space="preserve">
<g id="Layer_2">
</g>
<g id="Layer_1">
	<path d="M52.5,47.5L94.1,6.1c1.4-1.4,1.4-3.6,0-4.9c-1.4-1.4-3.6-1.4-4.9,0L47.5,42.6L6.1,1.1c-1.4-1.4-3.6-1.4-4.9,0
		s-1.4,3.6,0,4.9l41.5,41.6L1.1,89.1c-1.4,1.4-1.4,3.6,0,4.9c0.7,0.7,1.6,1,2.5,1s1.8-0.3,2.5-1l41.5-41.5L89.1,94
		c0.7,0.7,1.6,1,2.5,1s1.8-0.3,2.5-1c1.4-1.4,1.4-3.6,0-4.9L52.5,47.5z"/>
</g>
</svg>
