<?xml version="1.0" encoding="utf-8"?>
<!-- Generator: Adobe Illustrator 27.6.1, SVG Export Plug-In . SVG Version: 6.00 Build 0)  -->
<svg version="1.1" id="Capa_1" xmlns="http://www.w3.org/2000/svg" xmlns:xlink="http://www.w3.org/1999/xlink" x="0px" y="0px"
	 viewBox="0 0 45.8 45.8" style="enable-background:new 0 0 45.8 45.8;" xml:space="preserve">
<g>
	<path d="M7.3,45.5h31.1c3.2,0,5.8-2.6,5.8-5.8V6.1c0-3.2-2.6-5.8-5.8-5.8H7.3c-3.2,0-5.8,2.6-5.8,5.8v33.6
		C1.5,42.9,4.1,45.5,7.3,45.5z M38.5,43.5H7.3c-2,0-3.6-1.5-3.8-3.4l12.9-11.8l4.8,4.8c0.4,0.4,1,0.4,1.4,0c0,0,0,0,0,0l11.2-11.2
		l8.5,8.5v9.4C42.3,41.8,40.6,43.5,38.5,43.5z M7.3,2.3h31.1c2.1,0,3.8,1.7,3.8,3.8v21.4l-7.8-7.8c-0.4-0.4-1-0.4-1.4,0c0,0,0,0,0,0
		L21.9,31l-4.7-4.7c-0.4-0.4-1-0.4-1.4,0L3.5,37.4V6.1C3.5,4,5.2,2.3,7.3,2.3z"/>
	<path d="M18.3,18.7c2.4,0,4.4-2,4.4-4.4c0-2.4-2-4.4-4.4-4.4s-4.4,2-4.4,4.4c0,0,0,0,0,0C13.9,16.8,15.9,18.7,18.3,18.7z
		 M18.3,11.9c1.3,0,2.4,1.1,2.4,2.4c0,1.3-1.1,2.4-2.4,2.4c-1.3,0-2.4-1.1-2.4-2.4c0,0,0,0,0,0C15.9,13,17,11.9,18.3,11.9z"/>
</g>
</svg>
