<?xml version="1.0" encoding="utf-8"?>
<!-- Generator: Adobe Illustrator 26.5.0, SVG Export Plug-In . SVG Version: 6.00 Build 0)  -->
<svg version="1.1" id="Layer_1" xmlns="http://www.w3.org/2000/svg" xmlns:xlink="http://www.w3.org/1999/xlink" x="0px" y="0px"
	 viewBox="0 0 70.1 70.1" style="enable-background:new 0 0 70.1 70.1;" xml:space="preserve">
<g>
	<g>
		<path fill="#FFFFFF" d="M54.6,19.5l-1.8,44c0,0.9-0.8,1.6-1.7,1.6h-32c-0.9,0-1.6-0.7-1.7-1.6l-1.8-44c-0.1-1.4-1.2-2.5-2.6-2.4s-2.5,1.2-2.4,2.6
			l1.8,44c0.1,3.5,3.1,6.4,6.7,6.4h32c3.5,0,6.5-2.8,6.7-6.4l1.8-44c0.1-1.4-1-2.5-2.4-2.6C55.8,17,54.6,18.1,54.6,19.5z"/>
		<path fill="#FFFFFF" d="M33.1,23.6v34c0,1.1,0.9,2,2,2s2-0.9,2-2v-34c0-1.1-0.9-2-2-2S33.1,22.5,33.1,23.6z"/>
		<path fill="#FFFFFF" d="M22.1,23.6l1,34c0,1.1,1,2,2.1,1.9c1.1,0,2-1,1.9-2.1l-1-34c0-1.1-1-2-2.1-1.9C22.9,21.6,22,22.5,22.1,23.6z"/>
		<path fill="#FFFFFF" d="M44.1,23.5l-1,34c0,1.1,0.8,2,1.9,2.1c1.1,0,2-0.8,2.1-1.9l1-34c0-1.1-0.8-2-1.9-2.1C45,21.5,44.1,22.4,44.1,23.5z"/>
		<path fill="#FFFFFF" d="M10.1,13.6h50c1.4,0,2.5-1.1,2.5-2.5s-1.1-2.5-2.5-2.5h-50c-1.4,0-2.5,1.1-2.5,2.5S8.7,13.6,10.1,13.6z"/>
		<path fill="#FFFFFF" d="M27.5,10.3l1-3.6c0.2-0.8,1.2-1.5,2-1.5h9c0.8,0,1.8,0.8,2,1.5l1,3.6l4.8-1.4l-1-3.6c-0.8-2.9-3.8-5.2-6.9-5.2h-9
			c-3,0-6,2.2-6.9,5.2l-1,3.6L27.5,10.3z"/>
	</g>
</g>
</svg>
