<?xml version="1.0" encoding="utf-8"?>
<!-- Generator: Adobe Illustrator 27.6.1, SVG Export Plug-In . SVG Version: 6.00 Build 0)  -->
<svg version="1.1"
	 id="Capa_1" xmlns:svg="http://www.w3.org/2000/svg" xmlns:inkscape="http://www.inkscape.org/namespaces/inkscape" xmlns:sodipodi="http://sodipodi.sourceforge.net/DTD/sodipodi-0.dtd"
	 xmlns="http://www.w3.org/2000/svg" xmlns:xlink="http://www.w3.org/1999/xlink" x="0px" y="0px" viewBox="0 0 4.2328215 5.291687"
	 style="enable-background:new 0 0 4.2328215 5.291687;" xml:space="preserve">
<g transform="translate(0,-352.42499)">
	<path d="M2.0593119,352.4251099c-0.7020121,0.0177002-1.266073,0.5910645-1.266073,1.2973022v0.2894287h-0.264583
		c-0.2908009,0-0.5291671,0.2384033-0.5291671,0.5292664v2.6463013c0,0.290863,0.238366,0.5292664,0.5291669,0.5292664h3.175
		c0.2908001,0,0.5291657-0.2384033,0.5291657-0.5292664v-2.6463013c0-0.290863-0.2383661-0.5292664-0.5291662-0.5292664H3.4390712
		v-0.2894287c0-0.7174683-0.582164-1.2973022-1.2996621-1.2973022h-0.04651
		C2.0816891,352.4251099,2.0704491,352.4248352,2.0593119,352.4251099z M2.0929019,352.6886902h0.04651
		c0.5754271,0,1.0361128,0.458313,1.0361128,1.0337219v0.2894287h-2.118217v-0.2894287
		C1.0573077,353.1470337,1.5174756,352.6886902,2.0929019,352.6886902z M0.528657,354.2774963h3.1750002
		c0.1488328,0,0.2635498,0.1147156,0.2635498,0.2635803v2.6463013c0,0.1488647-0.114717,0.2635803-0.2635498,0.2635803h-3.175
		c-0.148834,0-0.263549-0.1147156-0.26355-0.2635803v-2.6463013C0.2651072,354.3922119,0.3798232,354.2774963,0.528657,354.2774963z
		 M2.1058211,355.2026672c-0.2118189,0.006012-0.386539,0.1841431-0.386539,0.3969421
		c0,0.1698608,0.111342,0.3181152,0.264066,0.3736877v0.4217529c0.0008769,0.0726013,0.0601366,0.1309509,0.1328089,0.1307678
		c0.0726719,0.0001831,0.1319311-0.0581665,0.132808-0.1307678v-0.4217529
		c0.152724-0.0555115,0.2640669-0.2038269,0.2640669-0.3736877c0-0.216156-0.1805389-0.3969421-0.3968749-0.3969421
		C2.112757,355.2026672,2.1091571,355.2025757,2.1058211,355.2026672z M2.1161611,355.4662476
		c0.07002,0,0.132808,0.063385,0.132808,0.1333313c0,0.0698853-0.0627899,0.132843-0.132808,0.132843
		c-0.07002,0-0.1328089-0.0628052-0.1328089-0.132843C1.9833522,355.5296936,2.0461421,355.4662476,2.1161611,355.4662476z"/>
</g>
</svg>
