<?xml version="1.0" encoding="utf-8"?>
<!-- Generator: Adobe Illustrator 26.5.0, SVG Export Plug-In . SVG Version: 6.00 Build 0)  -->
<svg version="1.1" id="Layer_1" xmlns="http://www.w3.org/2000/svg" xmlns:xlink="http://www.w3.org/1999/xlink" x="0px" y="0px"
	 viewBox="0 0 508.6 508.6" style="enable-background:new 0 0 508.6 508.6;" xml:space="preserve">
<g>
	<path d="M490,2.5l-67.8,12.3c-0.6-3.4-2.2-6.7-5-9.5c-3.4-2.8-7.3-3.9-11.2-2.8l-67.8,12.3c-0.6-3.4-2.2-6.7-5-9.5
		c-3.4-2.8-7.3-3.9-11.2-2.8l-308,56c-6.7,1.7-11.8,7.3-11.8,14v364c0,6.7,5,12.3,11.8,14l308,56h2.2c3.4,0,6.2-1.1,9-3.4
		c2.8-2.2,4.5-5.6,5-9.5l67.8,12.9h2.2c3.4,0,6.2-1.1,9-3.4c2.8-2.2,4.5-5.6,5-9.5l67.8,12.9h2.2c3.4,0,6.2-1.1,9-3.4
		c3.4-2.8,5-6.7,5-10.6v-476c0-3.9-1.7-7.8-5-10.6C497.9,3.1,494,1.9,490,2.5L490,2.5z M310.3,475.7l-280-51V84.3l280-51V475.7z
		 M394.3,475.7l-56-10.1V43.4l56-10.1V475.7z M478.3,475.7l-56-10.1V43.4l56-10.1V475.7z"/>
</g>
</svg>
