<?xml version="1.0" encoding="utf-8"?>
<!-- Generator: Adobe Illustrator 26.5.0, SVG Export Plug-In . SVG Version: 6.00 Build 0)  -->
<svg version="1.1" id="Layer_1" xmlns="http://www.w3.org/2000/svg" xmlns:xlink="http://www.w3.org/1999/xlink" x="0px" y="0px"
	 viewBox="0 0 38 38" style="enable-background:new 0 0 38 38;" xml:space="preserve">
<path d="M33,4h-3.1c-0.5-2.3-2.5-4-4.9-4H13c-2.4,0-4.4,1.7-4.9,4H5C2.2,4,0,6.2,0,9v24c0,2.8,2.2,5,5,5h28c2.8,0,5-2.2,5-5V9
	C38,6.2,35.8,4,33,4z M13,2h12c1.7,0,3,1.3,3,3s-1.3,3-3,3H13c-1.7,0-3-1.3-3-3S11.3,2,13,2z M36,33c0,1.7-1.3,3-3,3H5
	c-1.7,0-3-1.3-3-3V9c0-1.7,1.3-3,3-3h3.1c0.5,2.3,2.5,4,4.9,4h12c2.4,0,4.4-1.7,4.9-4H33c1.7,0,3,1.3,3,3V33z"/>
<rect x="9" y="15" width="20" height="2"/>
<rect x="9" y="29" width="20" height="2"/>
<rect x="9" y="22" width="20" height="2"/>
</svg>
