<?xml version="1.0" encoding="utf-8"?>
<!-- Generator: Adobe Illustrator 26.5.0, SVG Export Plug-In . SVG Version: 6.00 Build 0)  -->
<svg version="1.1" id="Layer_1" xmlns="http://www.w3.org/2000/svg" xmlns:xlink="http://www.w3.org/1999/xlink" x="0px" y="0px"
	 viewBox="0 0 440 440" style="enable-background:new 0 0 440 440;" xml:space="preserve">
<g>
	<path d="M395,315.6H210.4l137.8-137.8c8.2-8.2,12.8-19.3,12.8-30.9s-4.6-22.7-12.8-30.9l-24.8-24.8c-8.2-8.2-19.3-12.8-30.9-12.8
		s-22.7,4.6-30.9,12.8L123.8,229V44.4c0-11.6-4.6-22.7-12.8-30.9C102.7,5.2,91.6,0.6,80,0.6H45c-11.6,0-22.7,4.6-30.9,12.8
		C5.9,21.6,1.2,32.8,1.2,44.4v350c0,11.6,4.6,22.7,12.8,30.9c8.2,8.2,19.3,12.8,30.9,12.8h350c11.6,0,22.7-4.6,30.9-12.8
		c8.2-8.2,12.8-19.3,12.8-30.9v-35c0-11.6-4.6-22.7-12.8-30.9C417.7,320.2,406.6,315.6,395,315.6L395,315.6z M273.9,103.6
		c4.9-4.9,11.6-7.7,18.6-7.7c7,0,13.6,2.8,18.6,7.7l24.8,24.8c4.9,4.9,7.7,11.6,7.7,18.6c0,7-2.8,13.6-7.7,18.6L123.7,377.5V253.7
		L273.9,103.6z M18.7,394.4v-350c0-7,2.8-13.6,7.7-18.6S38,18.1,45,18.1h35c7,0,13.6,2.8,18.6,7.7s7.7,11.6,7.7,18.6v350
		c0,7-2.8,13.6-7.7,18.6S87,420.6,80,420.6H45c-7,0-13.6-2.8-18.6-7.7S18.7,401.3,18.7,394.4z M421.2,394.4c0,7-2.8,13.6-7.7,18.6
		s-11.6,7.7-18.6,7.7H115c3.9-5.2,6.6-11.2,7.9-17.5l70-70H395c7,0,13.6,2.8,18.6,7.7s7.7,11.6,7.7,18.6L421.2,394.4z"/>
</g>
</svg>
