<?xml version="1.0" encoding="utf-8"?>
<!-- Generator: Adobe Illustrator 26.5.0, SVG Export Plug-In . SVG Version: 6.00 Build 0)  -->
<svg version="1.1" id="Layer_1" xmlns="http://www.w3.org/2000/svg" xmlns:xlink="http://www.w3.org/1999/xlink" x="0px" y="0px"
	 viewBox="0 0 539.7 539.7" style="enable-background:new 0 0 539.7 539.7;" xml:space="preserve">
<style type="text/css">
	.st0{fill:#9DB7E7;fill-rule:evenodd;clip-rule:evenodd;}
</style>
<g>
	<path class="st0" d="M269.9,1.5C199,1.5,141.5,59,141.5,129.9S199,258.2,269.9,258.2s128.3-57.5,128.3-128.3S340.7,1.5,269.9,1.5z
		 M269.9,24.9c57.9,0,105,47.1,105,105s-47.1,105-105,105s-105-47.1-105-105S211.9,24.9,269.9,24.9z"/>
	<path class="st0" d="M491.5,479.9c0-52.6-20.9-103-58.1-140.2c-37.2-37.2-87.6-58.1-140.2-58.1h-46.7
		c-52.6,0-103.1,20.9-140.2,58.1c-37.2,37.2-58.1,87.6-58.1,140.2v23.3c0,19.3,15.7,35,35,35h373.3c19.3,0,35-15.7,35-35
		L491.5,479.9L491.5,479.9z M468.2,479.9v23.3c0,6.4-5.2,11.7-11.7,11.7H83.2c-6.4,0-11.7-5.2-11.7-11.7v-23.3
		c0-46.4,18.4-90.9,51.2-123.8c32.8-32.8,77.3-51.2,123.8-51.2h46.7c46.4,0,90.9,18.4,123.8,51.2
		C449.8,388.9,468.2,433.5,468.2,479.9L468.2,479.9z"/>
</g>
</svg>
