<?xml version="1.0" encoding="utf-8"?>
<!-- Generator: Adobe Illustrator 26.5.0, SVG Export Plug-In . SVG Version: 6.00 Build 0)  -->
<svg version="1.1" id="vector" xmlns="http://www.w3.org/2000/svg" xmlns:xlink="http://www.w3.org/1999/xlink" x="0px" y="0px"
	 viewBox="0 0 72 72" style="enable-background:new 0 0 72 72;" xml:space="preserve">
<style type="text/css">
	.st0{fill:#F5F5F5;}
	.st1{fill:#FFFFFF;}
</style>
<path id="path_0" class="st0" d="M49.5,21c-1.7,0-3.3,0.3-4.8,0.7C41,15.9,34.4,12,27,12C15.4,12,6,21.4,6,33s9.4,21,21,21h22.5
	C58.6,54,66,46.6,66,37.5S58.6,21,49.5,21z"/>
<path id="path_1" class="st1" d="M43.2,64.5c0-0.8,0.7-1.5,1.5-1.5s1.5,0.7,1.5,1.5c0,0.8-0.7,1.5-1.5,1.5S43.2,65.3,43.2,64.5"/>
<path id="path_2" class="st1" d="M36,64.5c0-0.8,0.7-1.5,1.5-1.5s1.5,0.7,1.5,1.5c0,0.8-0.7,1.5-1.5,1.5S36,65.3,36,64.5"/>
<path id="path_3" class="st1" d="M28.8,64.5c0-0.8,0.7-1.5,1.5-1.5s1.5,0.7,1.5,1.5c0,0.8-0.7,1.5-1.5,1.5S28.8,65.3,28.8,64.5"/>
<path id="path_4" class="st1" d="M21.6,64.5c0-0.8,0.7-1.5,1.5-1.5s1.5,0.7,1.5,1.5c0,0.8-0.7,1.5-1.5,1.5S21.6,65.3,21.6,64.5"/>
<path id="path_5" class="st1" d="M46.8,60.9c0-0.8,0.7-1.5,1.5-1.5s1.5,0.7,1.5,1.5s-0.7,1.5-1.5,1.5S46.8,61.7,46.8,60.9"/>
<path id="path_6" class="st1" d="M39.6,60.9c0-0.8,0.7-1.5,1.5-1.5s1.5,0.7,1.5,1.5s-0.7,1.5-1.5,1.5S39.6,61.7,39.6,60.9"/>
<path id="path_7" class="st1" d="M32.4,60.9c0-0.8,0.7-1.5,1.5-1.5s1.5,0.7,1.5,1.5s-0.7,1.5-1.5,1.5S32.4,61.7,32.4,60.9"/>
<path id="path_8" class="st1" d="M25.2,60.9c0-0.8,0.7-1.5,1.5-1.5s1.5,0.7,1.5,1.5s-0.7,1.5-1.5,1.5S25.2,61.7,25.2,60.9"/>
<path id="path_9" class="st1" d="M14.4,64.5c0-0.8,0.7-1.5,1.5-1.5c0.8,0,1.5,0.7,1.5,1.5c0,0.8-0.7,1.5-1.5,1.5
	C15.1,66,14.4,65.3,14.4,64.5"/>
<path id="path_10" class="st1" d="M18,60.9c0-0.8,0.7-1.5,1.5-1.5s1.5,0.7,1.5,1.5s-0.7,1.5-1.5,1.5S18,61.7,18,60.9"/>
<path id="path_11" class="st1" d="M43.2,57.3c0-0.8,0.7-1.5,1.5-1.5s1.5,0.7,1.5,1.5s-0.7,1.5-1.5,1.5S43.2,58.1,43.2,57.3"/>
<path id="path_12" class="st1" d="M50.4,57.3c0-0.8,0.7-1.5,1.5-1.5s1.5,0.7,1.5,1.5s-0.7,1.5-1.5,1.5S50.4,58.1,50.4,57.3"/>
<path id="path_13" class="st1" d="M50.4,64.5c0-0.8,0.7-1.5,1.5-1.5s1.5,0.7,1.5,1.5c0,0.8-0.7,1.5-1.5,1.5S50.4,65.3,50.4,64.5"/>
<path id="path_14" class="st1" d="M36,57.3c0-0.8,0.7-1.5,1.5-1.5s1.5,0.7,1.5,1.5s-0.7,1.5-1.5,1.5S36,58.1,36,57.3"/>
<path id="path_15" class="st1" d="M28.8,57.3c0-0.8,0.7-1.5,1.5-1.5s1.5,0.7,1.5,1.5s-0.7,1.5-1.5,1.5S28.8,58.1,28.8,57.3"/>
<path id="path_16" class="st1" d="M14.4,57.3c0-0.8,0.7-1.5,1.5-1.5c0.8,0,1.5,0.7,1.5,1.5s-0.7,1.5-1.5,1.5
	C15.1,58.8,14.4,58.1,14.4,57.3"/>
<path id="path_17" class="st1" d="M54,60.9c0-0.8,0.7-1.5,1.5-1.5s1.5,0.7,1.5,1.5s-0.7,1.5-1.5,1.5S54,61.7,54,60.9"/>
<path id="path_18" class="st1" d="M21.6,57.3c0-0.8,0.7-1.5,1.5-1.5s1.5,0.7,1.5,1.5s-0.7,1.5-1.5,1.5S21.6,58.1,21.6,57.3"/>
</svg>
