<?xml version="1.0" encoding="UTF-8"?>
<svg xmlns="http://www.w3.org/2000/svg" xmlns:xlink="http://www.w3.org/1999/xlink" width="20" height="11.73" viewBox="0 0 20 11.73">
  <defs>
    <clipPath id="clip-path">
      <rect id="Rectangle_1811" data-name="Rectangle 1811" width="20" height="11.73" fill="#00091f"></rect>
    </clipPath>
  </defs>
  <g id="Group_173579" data-name="Group 173579" transform="translate(0 0)">
    <g id="Group_173020" data-name="Group 173020" transform="translate(0 0)" clip-path="url(#clip-path)">
      <path id="Path_5016" data-name="Path 5016" d="M8.76,11.221.51,2.97A1.739,1.739,0,0,1,2.97.51l8.251,8.25A1.74,1.74,0,0,1,8.76,11.221" transform="translate(0 -0.001)" fill="#00091f"></path>
      <path id="Path_5017" data-name="Path 5017" d="M6.115,8.76,14.366.509a1.742,1.742,0,0,1,2.461,0h0a1.74,1.74,0,0,1,0,2.459L8.576,11.221A1.74,1.74,0,0,1,6.115,8.76" transform="translate(2.664 -0.001)" fill="#00091f"></path>
    </g>
  </g>
</svg>
