<?xml version="1.0" encoding="utf-8"?>
<!-- Generator: Adobe Illustrator 26.5.0, SVG Export Plug-In . SVG Version: 6.00 Build 0)  -->
<svg version="1.1" id="Layer_1" xmlns="http://www.w3.org/2000/svg" xmlns:xlink="http://www.w3.org/1999/xlink" x="0px" y="0px"
	 viewBox="0 0 285 285" style="enable-background:new 0 0 285 285;" xml:space="preserve">
<g>
	<path d="M269.8,41.7c-2.5,0.4-4.7,1.5-6.5,3.3c-57.6,57.7-110,114.8-166.8,172l-75.9-60.7l0,0c-2.3-1.9-5.3-2.7-8.2-2.4
		c-3,0.3-5.7,1.8-7.5,4.1c-3.9,4.8-3.1,11.9,1.8,15.8l84,67.2c4.5,3.5,10.9,3.1,14.9-0.9c60-60.1,114.1-119.6,173.6-179.2
		c3.6-3.3,4.5-8.6,2.4-13S274.6,41,269.8,41.7L269.8,41.7z"/>
</g>
</svg>
