<?xml version="1.0" encoding="utf-8"?>
<!-- Generator: Adobe Illustrator 26.5.0, SVG Export Plug-In . SVG Version: 6.00 Build 0)  -->
<svg version="1.1" id="Layer_1" xmlns="http://www.w3.org/2000/svg" xmlns:xlink="http://www.w3.org/1999/xlink" x="0px" y="0px"
	 viewBox="0 0 543.1 543.1" style="enable-background:new 0 0 543.1 543.1;" xml:space="preserve">
<style type="text/css">
	.st0{fill-rule:evenodd;clip-rule:evenodd;}
</style>
<g>
	<path class="st0" d="M201.6,539.9c6.4,0,11.7-5.2,11.7-11.7V364.9c0-6.4,5.2-11.7,11.7-11.7h93.3c6.4,0,11.7,5.2,11.7,11.7v163.3
		c0,6.4,5.2,11.7,11.7,11.7h116.7c19.3,0,35-15.7,35-35V306.6h11.7c14.2,0,26.9-8.5,32.3-21.6c5.4-13.1,2.4-28.1-7.6-38.1
		L296.3,13.5c-13.7-13.7-35.8-13.7-49.5,0L13.5,246.8c-10,10-13,25.1-7.6,38.1c5.4,13.1,18.2,21.6,32.3,21.6h11.7v198.3
		c0,19.3,15.7,35,35,35H201.6z M189.9,516.6h-105c-6.4,0-11.7-5.2-11.7-11.7v-210c0-6.4-5.2-11.7-11.7-11.7H38.2
		c-4.7,0-9-2.8-10.8-7.2c-1.8-4.4-0.8-9.4,2.5-12.7L263.3,30c4.6-4.6,11.9-4.6,16.5,0l233.3,233.3c3.3,3.3,4.3,8.4,2.5,12.7
		c-1.8,4.4-6.1,7.2-10.8,7.2h-23.3c-6.4,0-11.7,5.2-11.7,11.7v210c0,6.4-5.2,11.7-11.7,11.7h-105V364.9c0-19.3-15.7-35-35-35h-93.3
		c-19.3,0-35,15.7-35,35L189.9,516.6z"/>
</g>
</svg>
