<?xml version="1.0" encoding="utf-8"?>
<!-- Generator: Adobe Illustrator 26.5.0, SVG Export Plug-In . SVG Version: 6.00 Build 0)  -->
<svg version="1.1" id="Layer_1" xmlns="http://www.w3.org/2000/svg" xmlns:xlink="http://www.w3.org/1999/xlink" x="0px" y="0px"
	 viewBox="0 0 415.6 415.6" style="enable-background:new 0 0 415.6 415.6;" xml:space="preserve">
<g>
	<path d="M220.9,258.5c1.1,0.6,1.7,0.6,2.8,0.6c2.2,0,3.9-1.1,5-2.8c1.7-2.8,0.6-6.2-2.2-7.8c-20.7-11.2-49.8-29.1-77.3-54.3
		c35.3-33.6,66.1-78.4,74.5-134.4h57.7c3.4,0,5.6-2.2,5.6-5.6c0-3.4-2.2-5.6-5.6-5.6l-132.7,0v-33c0-3.4-2.2-5.6-5.6-5.6
		c-3.4,0-5.6,2.2-5.6,5.6v33H5.9c-3.4,0-5.6,2.2-5.6,5.6c0,3.4,2.2,5.6,5.6,5.6h206.1c-7.8,52.1-38.1,94.6-71.7,126.6
		c-23.5-22.4-44.8-49.8-58.8-82.3c-1.1-2.8-4.5-3.9-7.3-2.8c-2.8,1.1-3.9,4.5-2.8,7.3c14,33.6,36.4,62.2,61,85.1
		c-52.1,47-108.6,70-109.8,70.6c-2.8,1.1-4.5,4.5-3.4,7.3c1.1,2.2,2.8,3.4,5,3.4c0.6,0,1.7,0,2.2-0.6c3.9-1.7,61.6-25.2,113.7-72.2
		C169.4,228.2,199.6,247.3,220.9,258.5L220.9,258.5z"/>
	<path d="M414.7,397.9l-37.5-87.4l-76.2-177c-1.1-2.8-4.5-3.9-7.3-2.8l-0.6,0.2l-0.6-0.2c-2.8-1.1-6.2,0-7.3,2.8l-76.2,177
		l-37.5,87.4c-1.1,2.8,0,6.2,2.8,7.3c0.6,0.6,1.7,0.6,2.2,0.6c2.2,0,4.5-1.1,5-3.4l35.8-84h150.6l35.8,84c1.1,2.2,2.8,3.4,5,3.4
		c0.6,0,1.7,0,2.2-0.6C414.7,404.1,416.3,400.7,414.7,397.9L414.7,397.9z M222.6,307.2l70.6-164.1l70.6,164.1H222.6z"/>
</g>
</svg>
