<?xml version="1.0" encoding="utf-8"?>
<!-- Generator: Adobe Illustrator 26.5.0, SVG Export Plug-In . SVG Version: 6.00 Build 0)  -->
<svg version="1.1" id="Layer_1" xmlns="http://www.w3.org/2000/svg" xmlns:xlink="http://www.w3.org/1999/xlink" x="0px" y="0px"
	 viewBox="0 0 24.5025 24.21" style="enable-background:new 0 0 24.5025 24.21;" xml:space="preserve">
<style type="text/css">
	.st0{fill:none;}
	.st1{fill:#333333;fill-opacity:0;}
	.st2{opacity:0.8;fill-rule:evenodd;clip-rule:evenodd;fill:#E9A316;enable-background:new    ;}
	.st3{fill-rule:evenodd;clip-rule:evenodd;fill:url(#SVGID_1_);}
	.st4{opacity:0.2;fill-rule:evenodd;clip-rule:evenodd;fill:#E50040;enable-background:new    ;}
	.st5{opacity:0.8;fill-rule:evenodd;clip-rule:evenodd;fill:#E50040;enable-background:new    ;}
</style>
<rect x="-18.7725" y="-37.875" class="st0" width="512" height="100"/>
<g transform="translate(47.275001525878906,95.0149917602539)">
	<g transform="matrix(1,0,0,1,0,0)">
		<g>
			<rect x="-47.1375" y="-94.884" class="st1" width="24" height="23.98801"/>
			<g>
				<path class="st2" d="M-31.44137-94.30108c-1.19547-0.38763-2.4446-0.58435-3.70135-0.58291
					c-0.32384,0-0.64528,0.01199-0.95952,0.03838c-6.60291,0.5295-11.52637,6.31146-10.99687,12.91437
					c0.49981,6.2326,5.70377,11.03565,11.95639,11.03525c0.8309-0.0002,1.6596-0.0854,2.47316-0.25427
					c6.48305-1.35971,10.63634-7.71752,9.27663-14.20057C-24.27613-89.56192-27.34736-92.97728-31.44137-94.30108z
					 M-35.14272-75.72717c-3.95591,0-7.16282-3.2069-7.16282-7.16281c0-3.95592,3.2069-7.16282,7.16282-7.16282h0.30225
					c3.17588,0.13309,5.88473,2.34197,6.65427,5.42609c0.13846,0.56849,0.20773,1.15163,0.2063,1.73673
					C-27.9799-78.93407-31.1868-75.72717-35.14272-75.72717L-35.14272-75.72717z"/>
				
					<linearGradient id="SVGID_1_" gradientUnits="userSpaceOnUse" x1="-175.94476" y1="-97.04272" x2="-229.18301" y2="-43.80448" gradientTransform="matrix(0.23988 0 0 -0.23988 13.8042 -102.77364)">
					<stop  offset="0" style="stop-color:#E50040"/>
					<stop  offset="1" style="stop-color:#EBF855"/>
				</linearGradient>
				<path class="st3" d="M-28.18619-84.62672c-2.15892-2.14453-5.3949-2.42039-6.35442-4.35622
					c-0.16446-0.33276-0.26611-0.69302-0.29985-1.06267c-0.17991-1.91664,1.37691-3.97481,3.3991-4.25547
					c-1.19547-0.38763-2.4446-0.58435-3.70135-0.58291c-0.32384,0-0.64528,0.01199-0.95952,0.03838
					c-0.84321,0.06602-1.67705,0.22121-2.48756,0.46297c-2.66562,1.23021-3.82924,4.3884-2.59903,7.05402
					c0.05309,0.11503,0.11028,0.22813,0.17144,0.33907l0.06237,0.10795c1.3937,2.37482,8.02639,2.63868,9.5952,5.31574
					c0.90915,1.55922-0.26147,3.7877-1.5976,4.74963c-0.98591,0.70525-2.22609,0.97871-3.57182,0.95952
					c3.88689,0.76376,7.65698-1.76802,8.42075-5.65491C-27.90578-82.54313-27.93231-83.60659-28.18619-84.62672z"/>
				<path class="st4" d="M-36.53642-75.8615c-3.64378-0.07196-8.06956-2.31004-10.1949-3.92924
					c1.40342,5.24676,6.15739,8.89564,11.5886,8.89475c0.8309-0.0002,1.6596-0.0854,2.47316-0.25427
					c5.0063-1.10345,7.63298-6.3856,5.97061-11.09205c-0.30859-0.89727-0.81716-1.71262-1.48726-2.38441
					c0.1386,0.56846,0.20787,1.15161,0.2063,1.73673c-0.00664,3.96253-3.22429,7.16942-7.18682,7.16277
					C-35.62653-75.72798-36.08521-75.77295-36.53642-75.8615"/>
				<path class="st5" d="M-42.30553-82.88998c-0.00201-1.46641,0.44778-2.89783,1.28815-4.09956
					c-1.41748-2.57093-0.48242-5.80418,2.08851-7.22166c0.11095-0.06116,0.22404-0.11835,0.33908-0.17144
					c-6.2078,1.86884-9.81149,8.32767-8.14153,14.5919c2.12534,1.61919,6.55112,3.85728,10.1949,3.92924
					c-3.34843-0.67207-5.75761-3.61327-5.75712-7.02848"/>
			</g>
		</g>
	</g>
</g>
</svg>
