<?xml version="1.0" encoding="utf-8"?>
<!-- Generator: Adobe Illustrator 26.5.0, SVG Export Plug-In . SVG Version: 6.00 Build 0)  -->
<svg version="1.1" id="Layer_1" xmlns="http://www.w3.org/2000/svg" xmlns:xlink="http://www.w3.org/1999/xlink" x="0px" y="0px"
	 viewBox="0 0 98.80438 24.21" style="enable-background:new 0 0 98.80438 24.21;" xml:space="preserve">
<style type="text/css">
	.st0{fill:none;}
	.st1{fill:#333333;fill-opacity:0;}
	.st2{opacity:0.8;fill-rule:evenodd;clip-rule:evenodd;fill:#E9A316;enable-background:new    ;}
	.st3{fill-rule:evenodd;clip-rule:evenodd;fill:url(#SVGID_1_);}
	.st4{opacity:0.2;fill-rule:evenodd;clip-rule:evenodd;fill:#E50040;enable-background:new    ;}
	.st5{opacity:0.8;fill-rule:evenodd;clip-rule:evenodd;fill:#E50040;enable-background:new    ;}
	.st6{fill:#333333;}
</style>
<rect x="-18.7725" y="-37.875" class="st0" width="512" height="100"/>
<g transform="translate(47.275001525878906,95.0149917602539)">
	<g transform="matrix(1,0,0,1,0,0)">
		<g>
			<rect x="-47.1375" y="-94.884" class="st1" width="24" height="23.98801"/>
			<g>
				<path class="st2" d="M-31.44137-94.30108c-1.19547-0.38763-2.4446-0.58435-3.70135-0.58291
					c-0.32384,0-0.64528,0.01199-0.95952,0.03838c-6.60291,0.5295-11.52637,6.31146-10.99687,12.91437
					c0.49981,6.2326,5.70377,11.03565,11.95639,11.03525c0.8309-0.0002,1.6596-0.0854,2.47316-0.25427
					c6.48305-1.35971,10.63634-7.71752,9.27663-14.20057C-24.27613-89.56192-27.34736-92.97728-31.44137-94.30108z
					 M-35.14272-75.72717c-3.95591,0-7.16282-3.2069-7.16282-7.16281c0-3.95592,3.2069-7.16282,7.16282-7.16282h0.30225
					c3.17588,0.13309,5.88473,2.34197,6.65427,5.42609c0.13846,0.56849,0.20773,1.15163,0.2063,1.73673
					C-27.9799-78.93407-31.1868-75.72717-35.14272-75.72717L-35.14272-75.72717z"/>
				
					<linearGradient id="SVGID_1_" gradientUnits="userSpaceOnUse" x1="-175.94476" y1="-97.04272" x2="-229.18301" y2="-43.80448" gradientTransform="matrix(0.23988 0 0 -0.23988 13.8042 -102.77364)">
					<stop  offset="0" style="stop-color:#E50040"/>
					<stop  offset="1" style="stop-color:#EBF855"/>
				</linearGradient>
				<path class="st3" d="M-28.18619-84.62672c-2.15892-2.14453-5.3949-2.42039-6.35442-4.35622
					c-0.16446-0.33276-0.26611-0.69302-0.29985-1.06267c-0.17991-1.91664,1.37691-3.97481,3.3991-4.25547
					c-1.19547-0.38763-2.4446-0.58435-3.70135-0.58291c-0.32384,0-0.64528,0.01199-0.95952,0.03838
					c-0.84321,0.06602-1.67705,0.22121-2.48756,0.46297c-2.66562,1.23021-3.82924,4.3884-2.59903,7.05402
					c0.05309,0.11503,0.11028,0.22813,0.17144,0.33907l0.06237,0.10795c1.3937,2.37482,8.02639,2.63868,9.5952,5.31574
					c0.90915,1.55922-0.26147,3.7877-1.5976,4.74963c-0.98591,0.70525-2.22609,0.97871-3.57182,0.95952
					c3.88689,0.76376,7.65698-1.76802,8.42075-5.65491C-27.90578-82.54313-27.93231-83.60659-28.18619-84.62672z"/>
				<path class="st4" d="M-36.53642-75.8615c-3.64378-0.07196-8.06956-2.31004-10.1949-3.92924
					c1.40342,5.24676,6.15739,8.89564,11.5886,8.89475c0.8309-0.0002,1.6596-0.0854,2.47316-0.25427
					c5.0063-1.10345,7.63298-6.3856,5.97061-11.09205c-0.30859-0.89727-0.81716-1.71262-1.48726-2.38441
					c0.1386,0.56846,0.20787,1.15161,0.2063,1.73673c-0.00664,3.96253-3.22429,7.16942-7.18682,7.16277
					C-35.62653-75.72798-36.08521-75.77295-36.53642-75.8615"/>
				<path class="st5" d="M-42.30553-82.88998c-0.00201-1.46641,0.44778-2.89783,1.28815-4.09956
					c-1.41748-2.57093-0.48242-5.80418,2.08851-7.22166c0.11095-0.06116,0.22404-0.11835,0.33908-0.17144
					c-6.2078,1.86884-9.81149,8.32767-8.14153,14.5919c2.12534,1.61919,6.55112,3.85728,10.1949,3.92924
					c-3.34843-0.67207-5.75761-3.61327-5.75712-7.02848"/>
			</g>
		</g>
	</g>
	<g transform="translate(67,15.495007514953613)">
		<g transform="matrix(1,0,0,1,0,0)">
			<g transform="scale(1)">
				<g>
					<path class="st6" d="M-81.7455-97.901l1.464-5.368h3.184l-3.452,10.536h-3.352l-3.436-10.536h3.2l1.432,5.34
						c0.29866,1.18667,0.46266,2.01334,0.492,2.48l0,0c0.032-0.336,0.09867-0.756,0.2-1.26
						C-81.91217-97.21567-81.82283-97.613-81.7455-97.901L-81.7455-97.901z M-72.1855-92.589L-72.1855-92.589
						c-1.35733,0-2.412-0.36134-3.164-1.084c-0.752-0.72267-1.128-1.752-1.128-3.08801l0,0c0-1.37866,0.348-2.43733,1.044-3.17599
						c0.696-0.736,1.69067-1.104,2.984-1.104l0,0c1.22933,0,2.17867,0.32,2.848,0.96c0.672,0.64267,1.008,1.56667,1.008,2.772l0,0
						v1.256h-5.04c0.02133,0.456,0.18933,0.81334,0.504,1.072c0.31467,0.25867,0.74267,0.388,1.284,0.388l0,0
						c0.49599,0,0.95066-0.04666,1.364-0.14c0.416-0.09333,0.86667-0.25333,1.352-0.48l0,0v2.028
						c-0.44,0.224-0.896,0.38-1.368,0.46799C-70.9695-92.63167-71.53217-92.589-72.1855-92.589z M-72.3495-99.125L-72.3495-99.125
						c-0.33067,0-0.60799,0.104-0.832,0.312c-0.224,0.21066-0.35467,0.53867-0.392,0.98399l0,0h2.42
						c-0.01067-0.392-0.12267-0.70667-0.336-0.944C-71.70284-99.00767-71.9895-99.125-72.3495-99.125z M-64.1855-103.945v11.212
						h-2.816v-11.212H-64.1855z M-54.4375-96.833L-54.4375-96.833c0,1.336-0.35867,2.37733-1.076,3.124
						c-0.71733,0.74667-1.72267,1.12-3.016,1.12l0,0c-1.23999,0-2.22533-0.38133-2.956-1.144c-0.73333-0.76533-1.1-1.79866-1.1-3.1
						l0,0c0-1.33067,0.35867-2.36533,1.076-3.104c0.72-0.736,1.728-1.104,3.024-1.104l0,0c0.80267,0,1.51067,0.17067,2.124,0.512
						c0.616,0.34133,1.09066,0.82933,1.424,1.464C-54.60416-98.42767-54.4375-97.68366-54.4375-96.833z M-59.7255-96.833
						L-59.7255-96.833c0,0.70133,0.09334,1.236,0.28,1.604c0.18933,0.368,0.504,0.55199,0.944,0.55199l0,0
						c0.43734,0,0.74667-0.184,0.92801-0.55199c0.17867-0.368,0.268-0.90267,0.268-1.604l0,0c0-0.696-0.09067-1.22266-0.272-1.58
						c-0.184-0.35466-0.496-0.532-0.936-0.532l0,0c-0.432,0-0.74266,0.17734-0.932,0.532
						C-59.63216-98.061-59.7255-97.53433-59.7255-96.833z M-46.5255-95.241L-46.5255-95.241c0,0.87466-0.29734,1.53467-0.892,1.98
						c-0.59467,0.44801-1.44933,0.672-2.564,0.672l0,0c-0.60533,0-1.132-0.03201-1.58-0.096
						c-0.44534-0.06667-0.90133-0.18533-1.368-0.356l0,0v-2.256c0.43734,0.192,0.916,0.35066,1.436,0.476
						c0.52267,0.12267,0.988,0.184,1.396,0.184l0,0c0.61067,0,0.916-0.13866,0.916-0.416l0,0c0-0.144-0.08533-0.272-0.256-0.384
						c-0.17067-0.11467-0.66666-0.33467-1.488-0.66l0,0c-0.74933-0.30933-1.27333-0.65867-1.572-1.048
						c-0.29866-0.39201-0.448-0.888-0.448-1.488l0,0c0-0.76,0.29333-1.35201,0.88-1.776c0.58667-0.42133,1.416-0.632,2.488-0.632
						l0,0c0.536,0,1.04133,0.05867,1.516,0.176c0.472,0.11733,0.96267,0.28933,1.472,0.516l0,0l-0.764,1.816
						c-0.37333-0.168-0.76934-0.31067-1.188-0.428c-0.41867-0.11733-0.76-0.176-1.024-0.176l0,0
						c-0.46133,0-0.69201,0.112-0.692,0.336l0,0c0,0.13867,0.08133,0.25734,0.244,0.356c0.16,0.09867,0.624,0.3,1.392,0.604l0,0
						c0.57333,0.23466,1,0.46533,1.28,0.69199c0.28,0.22401,0.48666,0.48933,0.62,0.79601
						C-46.59083-96.049-46.5255-95.67833-46.5255-95.241z M-37.0215-92.733h-2.124l-0.352-1.016h-0.168
						c-0.23467,0.376-0.56266,0.66267-0.984,0.86c-0.41867,0.2-0.912,0.3-1.48,0.3l0,0c-0.89866,0-1.59733-0.26-2.096-0.78
						c-0.49866-0.52267-0.748-1.26-0.748-2.21201l0,0v-5.31599h2.816v4.46c0,0.53333,0.076,0.93733,0.228,1.212
						c0.152,0.272,0.4,0.408,0.744,0.408l0,0c0.48533,0,0.832-0.19067,1.04-0.572c0.20534-0.38133,0.308-1.02666,0.308-1.936l0,0
						v-3.572h2.816V-92.733z M-32.2415-100.897v8.16399h-2.82v-8.16399H-32.2415z M-35.1335-102.929L-35.1335-102.929
						c0-0.424,0.11866-0.73866,0.356-0.944c0.23467-0.20533,0.61334-0.308,1.13601-0.308l0,0c0.52534,0,0.908,0.10533,1.148,0.316
						c0.24,0.21066,0.36,0.52267,0.36,0.936l0,0c0,0.82667-0.50266,1.24001-1.508,1.24001l0,0
						C-34.63616-101.689-35.1335-102.10233-35.1335-102.929z M-26.2775-94.817L-26.2775-94.817c0.38134,0,0.836-0.09333,1.364-0.28
						l0,0v2.056c-0.37867,0.16267-0.74,0.27867-1.084,0.348c-0.344,0.06934-0.74667,0.104-1.208,0.104l0,0
						c-0.94667,0-1.62933-0.232-2.048-0.696c-0.416-0.464-0.624-1.176-0.624-2.136l0,0v-3.364h-0.988v-1.148l1.252-0.884
						l0.728-1.716h1.844v1.636h2.004v2.112h-2.004v3.17599C-27.0415-95.081-26.78683-94.817-26.2775-94.817z M-19.5455-92.589
						L-19.5455-92.589c-1.36,0-2.416-0.36134-3.168-1.084c-0.752-0.72267-1.128-1.752-1.128-3.08801l0,0
						c0-1.37866,0.34933-2.43733,1.048-3.17599c0.696-0.736,1.68933-1.104,2.98-1.104l0,0c1.22934,0,2.18001,0.32,2.852,0.96
						c0.66933,0.64267,1.004,1.56667,1.004,2.772l0,0v1.256h-5.036c0.01867,0.456,0.18533,0.81334,0.5,1.072
						c0.31467,0.25867,0.74399,0.388,1.288,0.388l0,0c0.49334,0,0.948-0.04666,1.364-0.14c0.416-0.09333,0.86666-0.25333,1.352-0.48
						l0,0v2.028c-0.44266,0.224-0.9,0.38-1.372,0.46799C-18.33084-92.63167-18.89217-92.589-19.5455-92.589z M-19.7095-99.125
						L-19.7095-99.125c-0.33333,0-0.61201,0.104-0.836,0.312c-0.22134,0.21066-0.352,0.53867-0.392,0.98399l0,0h2.424
						c-0.01067-0.392-0.12266-0.70667-0.336-0.944C-19.06284-99.00767-19.3495-99.125-19.7095-99.125z"/>
				</g>
			</g>
		</g>
	</g>
</g>
</svg>
