<?xml version="1.0" encoding="utf-8"?>
<!-- Generator: Adobe Illustrator 26.5.0, SVG Export Plug-In . SVG Version: 6.00 Build 0)  -->
<svg version="1.1" id="Layer_1" xmlns="http://www.w3.org/2000/svg" xmlns:xlink="http://www.w3.org/1999/xlink" x="0px" y="0px"
	 viewBox="0 0 24.3 24.3" style="enable-background:new 0 0 24.3 24.3;" xml:space="preserve">
<style type="text/css">
	.st0{fill:#0C4DC4;}
	.st1{opacity:0.8;fill:#0C4DC4;enable-background:new    ;}
	.st2{opacity:0.6;fill:#0C4DC4;enable-background:new    ;}
	.st3{opacity:0.4;fill:#0C4DC4;enable-background:new    ;}
</style>
<g transform="translate(47.61499786376953,103.35841369628906)">
	<g transform="matrix(1,0,0,1,0,0)">
		<g>
			<g>
				<path class="st0" d="M-23.5-99.8c0.1,0.1-0.1,0.2-0.1,0.3c-1.1,1.5-2.1,3-3.2,4.4c-1.6,2.2-3.1,4.4-4.7,6.6
					c-1.4,1.9-2.8,3.9-4.1,5.8c-0.2,0.3-0.3,0.3-0.5,0c-0.8-1.1-1.6-2.2-2.4-3.4c-0.3-0.4-0.3-0.4,0.1-0.7c2.3-2,4.6-4.1,7-6.1
					c1.5-1.4,3.1-2.7,4.6-4.1c1-0.9,2-1.7,3-2.6C-23.7-99.7-23.6-99.9-23.5-99.8z"/>
				<path class="st1" d="M-26.4-98.5c0.1,0,0.1,0,0.2,0c0,0.1,0,0.1-0.1,0.2c-0.2,0.2-0.5,0.4-0.7,0.6c-1.6,1.3-3.3,2.5-4.9,3.8
					c-1.9,1.5-3.8,3-5.7,4.5c-0.6,0.5-1.2,0.9-1.8,1.4c-0.2,0.2-0.4,0.2-0.5-0.1c-0.7-1-1.4-1.9-2.1-2.9c-0.2-0.2,0-0.3,0.2-0.4
					c0.7-0.3,1.3-0.6,2-0.9c2.4-1.1,4.8-2.2,7.2-3.3c1.3-0.6,2.7-1.2,4-1.8c0.6-0.3,1.3-0.6,1.9-0.9L-26.4-98.5z"/>
				<path class="st2" d="M-30.5-97.5h0.1c0,0,0.2,0,0.2,0.1c0,0.1-0.1,0.1-0.1,0.2c-0.5,0.2-1.1,0.4-1.6,0.6
					c-2.2,0.8-4.4,1.7-6.6,2.5c-1.4,0.5-2.8,1-4.1,1.5c-0.2,0.1-0.4,0-0.5-0.1c0,0,0,0,0,0c-0.5-0.7-1-1.3-1.4-2
					c-0.2-0.3-0.2-0.4,0.2-0.5c0.9-0.2,1.8-0.3,2.8-0.4c1-0.2,2-0.3,3.1-0.5c0.9-0.1,1.7-0.3,2.6-0.4c1-0.1,2.1-0.3,3.1-0.5
					C-32.1-97.2-31.3-97.3-30.5-97.5z"/>
				<path class="st3" d="M-40.8-97.9c0.8,0.1,1.6,0.2,2.4,0.4c0.7,0.1,1.4,0.2,2,0.3c0.1,0,0.3,0,0.3,0.2c0,0.2-0.2,0.1-0.3,0.1
					c-1.2,0-2.4,0.1-3.6,0.2c-1.5,0-3,0.1-4.5,0.2c-0.2,0-0.4,0-0.7,0l0,0c-0.2,0-0.4,0-0.6,0c-0.2,0-0.4-0.1-0.5-0.2
					c-0.4-0.6-0.8-1.2-1.2-1.7c-0.1-0.1-0.2-0.2-0.1-0.3c0.1-0.1,0.2-0.1,0.3-0.1c0.9,0.1,1.9,0.3,2.8,0.5"/>
			</g>
		</g>
	</g>
</g>
</svg>
