<?xml version="1.0" encoding="utf-8"?>
<!-- Generator: Adobe Illustrator 26.5.0, SVG Export Plug-In . SVG Version: 6.00 Build 0)  -->
<svg version="1.1" id="Layer_1" xmlns="http://www.w3.org/2000/svg" xmlns:xlink="http://www.w3.org/1999/xlink" x="0px" y="0px"
	 viewBox="0 0 541 541" style="enable-background:new 0 0 541 541;" xml:space="preserve">
<style type="text/css">
	.st0{fill-rule:evenodd;clip-rule:evenodd;}
</style>
<g>
	<path class="st0" d="M270.5,2.1C122.4,2.1,2.2,122.4,2.2,270.5s120.2,268.3,268.3,268.3s268.3-120.2,268.3-268.3
		S418.6,2.2,270.5,2.1L270.5,2.1z M270.5,25.5c135.2,0,245,109.8,245,245s-109.8,245-245,245s-245-109.8-245-245
		S135.3,25.5,270.5,25.5z"/>
	<path class="st0" d="M258.8,107.2v163.3c0,3.1,1.2,6.1,3.4,8.2l116.7,116.7c4.6,4.6,11.9,4.6,16.5,0c4.6-4.6,4.6-11.9,0-16.5
		L282.1,265.6V107.1c0-6.4-5.2-11.7-11.7-11.7S258.8,100.7,258.8,107.2L258.8,107.2z"/>
	<g>
		<defs>
			<line id="SVGID_1_" x1="1247.5" y1="1435" x2="547.5" y2="1435"/>
		</defs>
		<clipPath id="SVGID_00000129169377202619697550000007968328243385172891_">
			<use xlink:href="#SVGID_1_"  style="overflow:visible;"/>
		</clipPath>
	</g>
	<g>
		<defs>
			<line id="SVGID_00000062894998036812910760000015018124072963837605_" x1="1348.9" y1="1435" x2="648.9" y2="1435"/>
		</defs>
		<clipPath id="SVGID_00000124159161953512594620000016706617494659332997_">
			<use xlink:href="#SVGID_00000062894998036812910760000015018124072963837605_"  style="overflow:visible;"/>
		</clipPath>
	</g>
</g>
</svg>
