<?xml version="1.0" encoding="utf-8"?>
<!-- Generator: Adobe Illustrator 26.5.0, SVG Export Plug-In . SVG Version: 6.00 Build 0)  -->
<svg version="1.1" id="vector" xmlns="http://www.w3.org/2000/svg" xmlns:xlink="http://www.w3.org/1999/xlink" x="0px" y="0px"
	 viewBox="0 0 72 72" style="enable-background:new 0 0 72 72;" xml:space="preserve">
<style type="text/css">
	.st0{fill:#FEEA39;}
	.st1{fill:#F2F2F1;}
</style>
<path id="path_0" class="st0" d="M37.5,26.9c0-9.6,7.7-17.3,17.3-17.3S72,17.3,72,26.9s-7.7,17.3-17.3,17.3S37.5,36.5,37.5,26.9"/>
<g transform="translate(0,-952.36218)">
	<path class="st1" d="M29,967.3c7.5,0,13.2,4.4,15.8,9.7c7-3.5,16.7,0.9,16.7,11.4c6.2,1,10.5,7.1,10.5,13.2c0,7.3-6,13.2-14.9,13.2
		H14c-7.8,0-14-6.3-14-14c0-6.8,4.9-12.5,11.3-13.8C10.3,977.2,18,967.3,29,967.3L29,967.3z"/>
</g>
</svg>
