<?xml version="1.0" encoding="utf-8"?>
<!-- Generator: Adobe Illustrator 26.5.0, SVG Export Plug-In . SVG Version: 6.00 Build 0)  -->
<svg version="1.1" id="vector" xmlns="http://www.w3.org/2000/svg" xmlns:xlink="http://www.w3.org/1999/xlink" x="0px" y="0px"
	 viewBox="0 0 72 72" style="enable-background:new 0 0 72 72;" xml:space="preserve">
<style type="text/css">
	.st0{fill:#48484A;}
	.st1{fill:#F2F2F1;}
</style>
<g transform="translate(0,-952.36218)">
	<path class="st0" d="M39.5,966.9c5.7,0,10,3.3,11.9,7.3c5.3-2.7,12.6,0.7,12.6,8.6c4.7,0.8,8,5.3,8,10c0,5.5-4.5,10-11.3,10H28.2
		c-5.9,0-10.6-4.8-10.6-10.6c0-5.2,3.7-9.5,8.6-10.4C25.4,974.3,31.2,966.9,39.5,966.9L39.5,966.9z"/>
</g>
<g transform="translate(0,-952.36218)">
	<path class="st1" d="M24.2,970.3c6.3,0,11,3.7,13.2,8c5.9-2.9,13.9,0.7,13.9,9.5c5.2,0.9,8.8,5.9,8.8,11c0,6.1-5,11-12.4,11H11.7
		c-6.5,0-11.7-5.2-11.7-11.7c0-5.7,4.1-10.4,9.4-11.5C8.6,978.5,15,970.3,24.2,970.3L24.2,970.3z"/>
</g>
</svg>
