<?xml version="1.0" encoding="utf-8"?>
<!-- Generator: Adobe Illustrator 26.5.0, SVG Export Plug-In . SVG Version: 6.00 Build 0)  -->
<svg version="1.1" id="vector" xmlns="http://www.w3.org/2000/svg" xmlns:xlink="http://www.w3.org/1999/xlink" x="0px" y="0px"
	 viewBox="0 0 72 72" style="enable-background:new 0 0 72 72;" xml:space="preserve">
<style type="text/css">
	.st0{fill:#48484A;}
	.st1{fill:#F2F2F1;}
</style>
<g transform="translate(0,-952.36218)">
	<path class="st0" d="M39.5,966.9c5.7,0,10,3.3,11.9,7.3c5.3-2.7,12.6,0.7,12.6,8.6c4.7,0.8,8,5.3,8,10c0,5.5-4.5,10-11.3,10H28.2
		c-5.9,0-10.6-4.8-10.6-10.6c0-5.2,3.7-9.5,8.6-10.4C25.4,974.3,31.2,966.9,39.5,966.9L39.5,966.9z"/>
</g>
<g transform="translate(0,-952.36218)">
	<path class="st1" d="M24.2,970.3c6.3,0,11,3.7,13.2,8c5.9-2.9,13.9,0.7,13.9,9.5c5.2,0.9,8.8,5.9,8.8,11c0,6.1-5,11-12.4,11h-36
		c-6.5,0-11.7-5.2-11.7-11.7c0-5.7,4.1-10.4,9.4-11.5C8.6,978.5,15,970.3,24.2,970.3L24.2,970.3z"/>
</g>
<path class="st0" d="M33.1,69.2l1.6,0.7c0,0,0,0,0,0c-0.4,0.9-1.4,1.3-2.3,0.9c-0.9-0.4-1.3-1.4-0.9-2.3L33.1,69.2z"/>
<path class="st0" d="M35.1,64.8l-1.6-0.7c0,0,0,0,0,0c0.4-0.9,1.4-1.3,2.3-0.9c0.9,0.4,1.3,1.4,0.9,2.3L35.1,64.8z"/>
<rect x="31.6" y="65.3" transform="matrix(0.4018 -0.9157 0.9157 0.4018 -40.9546 71.2936)" class="st0" width="5" height="3.5"/>
<path class="st0" d="M37.2,60l1.6,0.7c0,0,0,0,0,0c-0.4,0.9-1.4,1.3-2.3,0.9c-0.9-0.4-1.3-1.4-0.9-2.3L37.2,60z"/>
<path class="st0" d="M38,58l-1.6-0.7c0,0,0,0,0,0c0.4-0.9,1.4-1.3,2.3-0.9s1.3,1.4,0.9,2.3L38,58z"/>
<rect x="36.4" y="57.3" transform="matrix(0.4018 -0.9157 0.9157 0.4018 -31.5341 69.7246)" class="st0" width="2.4" height="3.5"/>
<path class="st0" d="M17.5,57.6l1.6,0.7c0,0,0,0,0,0c-0.4,0.9-1.4,1.3-2.3,0.9c-0.9-0.4-1.3-1.4-0.9-2.3L17.5,57.6z"/>
<path class="st0" d="M18.4,55.7L16.8,55c0,0,0,0,0,0c0.4-0.9,1.4-1.3,2.3-0.9c0.9,0.4,1.3,1.4,0.9,2.3L18.4,55.7z"/>
<rect x="16.8" y="54.9" transform="matrix(0.4018 -0.9157 0.9157 0.4018 -41.1146 50.3264)" class="st0" width="2.4" height="3.5"/>
<path class="st0" d="M12.9,68.2l1.6,0.7c0,0,0,0,0,0c-0.4,0.9-1.4,1.3-2.3,0.9c-0.9-0.4-1.3-1.4-0.9-2.3L12.9,68.2z"/>
<path class="st0" d="M14.8,63.8l-1.6-0.7c0,0,0,0,0,0c0.4-0.9,1.4-1.3,2.3-0.9c0.9,0.4,1.3,1.4,0.9,2.3L14.8,63.8z"/>
<rect x="11.4" y="64.2" transform="matrix(0.4018 -0.9157 0.9157 0.4018 -52.1048 52.157)" class="st0" width="5" height="3.5"/>
<path class="st0" d="M25.5,62.6l1.6,0.7c0,0,0,0,0,0c-0.4,0.9-1.4,1.3-2.3,0.9c-0.9-0.4-1.3-1.4-0.9-2.3L25.5,62.6z"/>
<path class="st0" d="M27.4,58.2l-1.6-0.7c0,0,0,0,0,0c0.4-0.9,1.4-1.3,2.3-0.9c0.9,0.4,1.3,1.4,0.9,2.3L27.4,58.2z"/>
<rect x="24" y="58.7" transform="matrix(0.4018 -0.9157 0.9157 0.4018 -39.5044 60.3907)" class="st0" width="5" height="3.5"/>
<path class="st0" d="M22.3,69.8l1.6,0.7c0,0,0,0,0,0c-0.4,0.9-1.4,1.3-2.3,0.9c-0.9-0.4-1.3-1.4-0.9-2.3L22.3,69.8z"/>
<path class="st0" d="M23.2,67.9l-1.6-0.7c0,0,0,0,0,0c0.4-0.9,1.4-1.3,2.3-0.9c0.9,0.4,1.3,1.4,0.9,2.3L23.2,67.9z"/>
<rect x="21.6" y="67.1" transform="matrix(0.4018 -0.9157 0.9157 0.4018 -49.4354 62.0437)" class="st0" width="2.4" height="3.5"/>
</svg>
