<?xml version="1.0" encoding="utf-8"?>
<!-- Generator: Adobe Illustrator 26.5.0, SVG Export Plug-In . SVG Version: 6.00 Build 0)  -->
<svg version="1.1" id="vector" xmlns="http://www.w3.org/2000/svg" xmlns:xlink="http://www.w3.org/1999/xlink" x="0px" y="0px"
	 viewBox="0 0 72 72" style="enable-background:new 0 0 72 72;" xml:space="preserve">
<style type="text/css">
	.st0{fill:#FEEA39;}
	.st1{fill:#F2F2F1;}
	.st2{fill:#48484A;}
</style>
<path id="path_0" class="st0" d="M36.1,22.5c0-9.8,8-17.8,17.8-17.8s17.8,8,17.8,17.8s-8,17.8-17.8,17.8S36.1,32.4,36.1,22.5"/>
<g transform="translate(0,-952.36218)">
	<path class="st1" d="M27.8,962.3c7.2,0,12.6,4.2,15.2,9.2c6.8-3.3,16,0.8,16,10.9c6,1,10.1,6.8,10.1,12.6c0,7-5.7,12.6-14.2,12.6
		H13.4c-7.5,0-13.4-6-13.4-13.4c0-6.5,4.7-11.9,10.8-13.2C9.9,971.8,17.2,962.3,27.8,962.3L27.8,962.3z"/>
</g>
<path class="st2" d="M38,68.9l1.8,0.8c0,0,0,0,0,0c-0.4,1-1.6,1.5-2.6,1s-1.5-1.6-1-2.6L38,68.9z"/>
<path class="st2" d="M40.3,63.8L38.4,63c0,0,0,0,0,0c0.4-1,1.6-1.5,2.6-1c1,0.4,1.5,1.6,1,2.6L40.3,63.8z"/>
<rect x="36.3" y="64.3" transform="matrix(0.4018 -0.9157 0.9157 0.4018 -37.3072 75.5178)" class="st2" width="5.8" height="4"/>
<path class="st2" d="M42.7,58.3l1.8,0.8c0,0,0,0,0,0c-0.4,1-1.6,1.5-2.6,1c-1-0.4-1.5-1.6-1-2.6L42.7,58.3z"/>
<path class="st2" d="M43.7,56l-1.8-0.8c0,0,0,0,0,0c0.4-1,1.6-1.5,2.6-1s1.5,1.6,1,2.6L43.7,56z"/>
<rect x="41.8" y="55.2" transform="matrix(0.4018 -0.9157 0.9157 0.4018 -26.4894 73.7161)" class="st2" width="2.7" height="4"/>
<path class="st2" d="M20.1,55.6l1.8,0.8c0,0,0,0,0,0c-0.4,1-1.6,1.5-2.6,1c-1-0.4-1.5-1.6-1-2.6L20.1,55.6z"/>
<path class="st2" d="M21.1,53.3l-1.8-0.8c0,0,0,0,0,0c0.4-1,1.6-1.5,2.6-1c1,0.4,1.5,1.6,1,2.6L21.1,53.3z"/>
<rect x="19.3" y="52.4" transform="matrix(0.4018 -0.9157 0.9157 0.4018 -37.491 51.4405)" class="st2" width="2.7" height="4"/>
<path class="st2" d="M14.8,67.7l1.8,0.8c0,0,0,0,0,0c-0.4,1-1.6,1.5-2.6,1s-1.5-1.6-1-2.6L14.8,67.7z"/>
<path class="st2" d="M17,62.6l-1.8-0.8c0,0,0,0,0,0c0.4-1,1.6-1.5,2.6-1c1,0.4,1.5,1.6,1,2.6L17,62.6z"/>
<rect x="13" y="63.1" transform="matrix(0.4018 -0.9157 0.9157 0.4018 -50.1114 53.5427)" class="st2" width="5.8" height="4"/>
<path class="st2" d="M29.3,61.3l1.8,0.8c0,0,0,0,0,0c-0.4,1-1.6,1.5-2.6,1c-1-0.4-1.5-1.6-1-2.6L29.3,61.3z"/>
<path class="st2" d="M31.5,56.3l-1.8-0.8c0,0,0,0,0,0c0.4-1,1.6-1.5,2.6-1s1.5,1.6,1,2.6L31.5,56.3z"/>
<rect x="27.5" y="56.8" transform="matrix(0.4018 -0.9157 0.9157 0.4018 -35.6419 62.9977)" class="st2" width="5.8" height="4"/>
<path class="st2" d="M25.7,69.6l1.8,0.8c0,0,0,0,0,0c-0.4,1-1.6,1.5-2.6,1s-1.5-1.6-1-2.6L25.7,69.6z"/>
<path class="st2" d="M26.6,67.3l-1.8-0.8c0,0,0,0,0,0c0.4-1,1.6-1.5,2.6-1c1,0.4,1.5,1.6,1,2.6L26.6,67.3z"/>
<rect x="24.8" y="66.5" transform="matrix(0.4018 -0.9157 0.9157 0.4018 -47.046 64.8958)" class="st2" width="2.7" height="4"/>
</svg>
