<?xml version="1.0" encoding="utf-8"?>
<!-- Generator: Adobe Illustrator 26.5.0, SVG Export Plug-In . SVG Version: 6.00 Build 0)  -->
<svg version="1.1" id="Layer_1" xmlns="http://www.w3.org/2000/svg" xmlns:xlink="http://www.w3.org/1999/xlink" x="0px" y="0px"
	 viewBox="0 0 899.3 944" style="enable-background:new 0 0 899.3 944;" xml:space="preserve">
<style type="text/css">
	.st0{fill:#F2F2F1;}
</style>
<g>
	<g>
		<g>
			<path class="st0" d="M489.7,903.9c0-7.7,0-15.4,0-23.1c0-20.9,0-41.9,0-62.8c0-31,0-62,0-92.9c0-37.8,0-75.6,0-113.4
				c0-41.4,0-82.8,0-124.2c0-41.8,0-83.6,0-125.4c0-39,0-78,0-117c0-32.9,0-65.9,0-98.8c0-23.7,0-47.4,0-71.1
				c0-11.2,0.1-22.5,0-33.7c0-0.5,0-1,0-1.5c0-20.9-18.4-41-40-40c-21.7,1-40,17.6-40,40c0,7.7,0,15.4,0,23.1c0,20.9,0,41.9,0,62.8
				c0,31,0,62,0,92.9c0,37.8,0,75.6,0,113.4c0,41.4,0,82.8,0,124.2c0,41.8,0,83.6,0,125.4c0,39,0,78,0,117c0,32.9,0,65.9,0,98.8
				c0,23.7,0,47.4,0,71.1c0,11.2-0.1,22.5,0,33.7c0,0.5,0,1,0,1.5c0,20.9,18.4,41,40,40C471.4,942.9,489.7,926.3,489.7,903.9
				L489.7,903.9z"/>
		</g>
	</g>
	<g>
		<g>
			<path class="st0" d="M568.5,55.6c-16.5,16.5-33.1,33.1-49.6,49.6c-26.4,26.4-52.8,52.8-79.2,79.2c-6.1,6.1-12.2,12.2-18.3,18.3
				c18.9,0,37.7,0,56.6,0c-16.5-16.5-33.1-33.1-49.6-49.6c-26.4-26.4-52.8-52.8-79.2-79.2c-6.1-6.1-12.2-12.2-18.3-18.3
				c-14.8-14.8-42-15.9-56.6,0c-14.7,16-15.8,40.8,0,56.6c16.5,16.5,33.1,33.1,49.6,49.6c26.4,26.4,52.8,52.8,79.2,79.2
				c6.1,6.1,12.2,12.2,18.3,18.3c15.3,15.3,41.3,15.3,56.6,0c16.5-16.5,33.1-33.1,49.6-49.6c26.4-26.4,52.8-52.8,79.2-79.2
				c6.1-6.1,12.2-12.2,18.3-18.3c14.8-14.8,15.9-42,0-56.6C609.1,40.9,584.3,39.8,568.5,55.6L568.5,55.6z"/>
		</g>
	</g>
	<g>
		<g>
			<path class="st0" d="M625.1,831.7c-16.5-16.5-33.1-33.1-49.6-49.6c-26.4-26.4-52.8-52.8-79.2-79.2c-6.1-6.1-12.2-12.2-18.3-18.3
				c-15.3-15.3-41.3-15.3-56.6,0c-16.5,16.5-33.1,33.1-49.6,49.6c-26.4,26.4-52.8,52.8-79.2,79.2c-6.1,6.1-12.2,12.2-18.3,18.3
				c-14.8,14.8-15.9,42,0,56.6c16,14.7,40.8,15.8,56.6,0c16.5-16.5,33.1-33.1,49.6-49.6c26.4-26.4,52.8-52.8,79.2-79.2
				c6.1-6.1,12.2-12.2,18.3-18.3c-18.9,0-37.7,0-56.6,0c16.5,16.5,33.1,33.1,49.6,49.6c26.4,26.4,52.8,52.8,79.2,79.2
				c6.1,6.1,12.2,12.2,18.3,18.3c14.8,14.8,42,15.9,56.6,0C639.7,872.3,640.9,847.5,625.1,831.7L625.1,831.7z"/>
		</g>
	</g>
	<g>
		<g>
			<path class="st0" d="M844,653.4c-6.7-3.8-13.3-7.7-20-11.5c-18.1-10.5-36.3-20.9-54.4-31.4c-26.8-15.5-53.7-31-80.5-46.5
				c-32.7-18.9-65.5-37.8-98.2-56.7c-35.9-20.7-71.7-41.4-107.6-62.1c-36.2-20.9-72.4-41.8-108.6-62.7
				c-33.8-19.5-67.5-39-101.3-58.5c-28.5-16.5-57.1-32.9-85.6-49.4c-20.5-11.9-41.1-23.7-61.6-35.6c-9.7-5.6-19.4-11.3-29.2-16.9
				c-0.4-0.2-0.8-0.5-1.3-0.7c-9-5.2-20.8-6.8-30.8-4c-9.3,2.6-19.3,9.7-23.9,18.4c-10.1,19.1-5,43.6,14.4,54.7
				c6.7,3.8,13.3,7.7,20,11.5c18.1,10.5,36.3,20.9,54.4,31.4c26.8,15.5,53.7,31,80.5,46.5c32.7,18.9,65.5,37.8,98.2,56.7
				c35.9,20.7,71.7,41.4,107.6,62.1c36.2,20.9,72.4,41.8,108.6,62.7c33.8,19.5,67.5,39,101.3,58.5c28.5,16.5,57.1,32.9,85.6,49.4
				c20.5,11.9,41.1,23.7,61.6,35.6c9.7,5.6,19.4,11.3,29.2,16.9c0.4,0.2,0.8,0.5,1.3,0.7c9,5.2,20.8,6.8,30.8,4
				c9.3-2.6,19.3-9.7,23.9-18.4C868.4,689,863.4,664.5,844,653.4L844,653.4z"/>
		</g>
	</g>
	<g>
		<g>
			<path class="st0" d="M148.6,161.1c6.1,22.6,12.1,45.2,18.2,67.8c9.7,36.1,19.3,72.1,29,108.2c2.2,8.3,4.5,16.7,6.7,25
				c9.3-16.4,18.6-32.8,27.9-49.2c-22.6,6.1-45.2,12.1-67.8,18.2c-36.1,9.7-72.1,19.3-108.2,29c-8.3,2.2-16.7,4.5-25,6.7
				c-9.7,2.6-18.9,9.8-23.9,18.4s-7.1,21.2-4,30.8c6.7,20.7,27.5,33.7,49.2,27.9c22.6-6.1,45.2-12.1,67.8-18.2
				c36.1-9.7,72.1-19.3,108.2-29c8.3-2.2,16.7-4.5,25-6.7c21-5.6,33.5-28.4,27.9-49.2c-6.1-22.6-12.1-45.2-18.2-67.8
				c-9.7-36.1-19.3-72.1-29-108.2c-2.2-8.3-4.5-16.7-6.7-25c-2.6-9.7-9.8-18.9-18.4-23.9s-21.2-7.1-30.8-4
				C155.8,118.6,142.8,139.5,148.6,161.1L148.6,161.1z"/>
		</g>
	</g>
	<g>
		<g>
			<path class="st0" d="M848.7,500c-22.6,6.1-45.2,12.1-67.8,18.2c-36.1,9.7-72.1,19.3-108.2,29c-8.3,2.2-16.7,4.5-25,6.7
				c-21,5.6-33.5,28.4-27.9,49.2c6.1,22.6,12.1,45.2,18.2,67.8c9.7,36.1,19.3,72.1,29,108.2c2.2,8.3,4.5,16.7,6.7,25
				c2.6,9.7,9.8,18.9,18.4,23.9c8.6,5,21.2,7.1,30.8,4c20.7-6.7,33.7-27.5,27.9-49.2c-6.1-22.6-12.1-45.2-18.2-67.8
				c-9.7-36.1-19.3-72.1-29-108.2c-2.2-8.3-4.5-16.7-6.7-25c-9.3,16.4-18.6,32.8-27.9,49.2c22.6-6.1,45.2-12.1,67.8-18.2
				c36.1-9.7,72.1-19.3,108.2-29c8.3-2.2,16.7-4.5,25-6.7c9.7-2.6,18.9-9.8,23.9-18.4c5-8.6,7.1-21.2,4-30.8
				C891.2,507.2,870.3,494.2,848.7,500L848.7,500z"/>
		</g>
	</g>
	<g>
		<g>
			<path class="st0" d="M803.6,221.4c-6.7,3.8-13.3,7.7-20,11.5c-18.1,10.5-36.3,20.9-54.4,31.4c-26.8,15.5-53.7,31-80.5,46.5
				c-32.7,18.9-65.5,37.8-98.2,56.7c-35.9,20.7-71.7,41.4-107.6,62.1c-36.2,20.9-72.4,41.8-108.6,62.7
				c-33.8,19.5-67.5,39-101.3,58.5c-28.5,16.5-57.1,32.9-85.6,49.4c-20.5,11.9-41.1,23.7-61.6,35.6c-9.7,5.6-19.5,11.1-29.2,16.9
				c-0.4,0.2-0.8,0.5-1.3,0.7c-8.7,5-15.7,14.3-18.4,23.9c-2.6,9.6-1.4,22.3,4,30.8c11.8,18.3,35.3,25.5,54.7,14.4
				c6.7-3.8,13.3-7.7,20-11.5c18.1-10.5,36.3-20.9,54.4-31.4c26.8-15.5,53.7-31,80.5-46.5c32.7-18.9,65.5-37.8,98.2-56.7
				c35.9-20.7,71.7-41.4,107.6-62.1c36.2-20.9,72.4-41.8,108.6-62.7c33.8-19.5,67.5-39,101.3-58.5c28.5-16.5,57.1-32.9,85.6-49.4
				c20.5-11.9,41.1-23.7,61.6-35.6c9.7-5.6,19.5-11.1,29.2-16.9c0.4-0.2,0.8-0.5,1.3-0.7c8.7-5,15.7-14.3,18.4-23.9
				c2.6-9.6,1.4-22.3-4-30.8C846.6,217.4,823,210.2,803.6,221.4L803.6,221.4z"/>
		</g>
	</g>
	<g>
		<g>
			<path class="st0" d="M225.8,803.9c6.1-22.6,12.1-45.2,18.2-67.8c9.7-36.1,19.3-72.1,29-108.2c2.2-8.3,4.5-16.7,6.7-25
				c5.6-20.8-6.9-43.6-27.9-49.2c-22.6-6.1-45.2-12.1-67.8-18.2c-36.1-9.7-72.1-19.3-108.2-29c-8.3-2.2-16.7-4.5-25-6.7
				c-10.1-2.7-21.8-1.2-30.8,4c-8.4,5.1-16.3,14.6-18.5,24.1c-4.8,21,6.3,43.4,27.9,49.2c22.6,6.1,45.2,12.1,67.8,18.2
				c36.1,9.7,72.1,19.3,108.2,29c8.3,2.2,16.7,4.5,25,6.7c-9.3-16.4-18.6-32.8-27.9-49.2c-6.1,22.6-12.1,45.2-18.2,67.8
				c-9.7,36.1-19.3,72.1-29,108.2c-2.2,8.3-4.5,16.7-6.7,25c-2.7,10.1-1.2,21.8,4,30.8c4.9,8.3,14.4,16.2,23.9,18.4
				C197.6,836.7,220,825.6,225.8,803.9L225.8,803.9z"/>
		</g>
	</g>
	<g>
		<g>
			<path class="st0" d="M869.9,366.7c-22.6-6.1-45.2-12.1-67.8-18.2c-36.1-9.7-72.1-19.3-108.2-29c-8.3-2.2-16.7-4.5-25-6.7
				c9.3,16.4,18.6,32.8,27.9,49.2c6.1-22.6,12.1-45.2,18.2-67.8c9.7-36.1,19.3-72.1,29-108.2c2.2-8.3,4.5-16.7,6.7-25
				c2.7-10.1,1.2-21.8-4-30.8c-4.9-8.3-14.4-16.2-23.9-18.4c-21-4.8-43.4,6.3-49.2,27.9c-6.1,22.6-12.1,45.2-18.2,67.8
				c-9.7,36.1-19.3,72.1-29,108.2c-2.2,8.3-4.5,16.7-6.7,25c-5.6,20.8,6.9,43.6,27.9,49.2c22.6,6.1,45.2,12.1,67.8,18.2
				c36.1,9.7,72.1,19.3,108.2,29c8.3,2.2,16.7,4.5,25,6.7c10.1,2.7,21.8,1.2,30.8-4c8.3-4.9,16.2-14.4,18.4-23.9
				C902.7,394.9,891.6,372.5,869.9,366.7L869.9,366.7z"/>
		</g>
	</g>
</g>
</svg>
