<?xml version="1.0" encoding="utf-8"?>
<!-- Generator: Adobe Illustrator 26.5.0, SVG Export Plug-In . SVG Version: 6.00 Build 0)  -->
<svg version="1.1" id="vector" xmlns="http://www.w3.org/2000/svg" xmlns:xlink="http://www.w3.org/1999/xlink" x="0px" y="0px"
	 viewBox="0 0 72 72" style="enable-background:new 0 0 72 72;" xml:space="preserve">
<style type="text/css">
	.st0{fill:#F2F2F1;}
</style>
<g transform="translate(0,-952.36218)">
	<path class="st0" d="M29,952.4c7.5,0,13.2,4.4,15.8,9.7c7-3.5,16.7,0.9,16.7,11.4c6.2,1,10.5,7.1,10.5,13.2c0,7.3-6,13.2-14.9,13.2
		H14c-7.8,0-14-6.3-14-14c0-6.8,4.9-12.5,11.3-13.8C10.3,962.3,18,952.4,29,952.4L29,952.4z"/>
</g>
<path class="st0" d="M69.3,71.2H56.6c-0.9,0-1.7-0.6-1.8-1.4c-0.2-1.1,0.7-2,1.7-2h12.6c0.9,0,1.7,0.7,1.8,1.6
	C71.1,70.4,70.3,71.2,69.3,71.2z"/>
<path class="st0" d="M48.8,71.2h-10c-1,0-1.7-0.8-1.7-1.7c0-1,0.8-1.7,1.7-1.7h10c1,0,1.7,0.8,1.7,1.7
	C50.5,70.5,49.8,71.2,48.8,71.2z"/>
<path class="st0" d="M30.2,71.2H17.4c-1,0-1.7-0.8-1.7-1.7c0-1,0.8-1.7,1.7-1.7h12.9c1,0,1.7,0.8,1.7,1.7
	C32,70.5,31.2,71.2,30.2,71.2z"/>
<path class="st0" d="M10.2,71.2H2.5c-1,0-1.7-0.8-1.7-1.7c0-1,0.8-1.7,1.7-1.7h7.7c1,0,1.7,0.8,1.7,1.7C12,70.5,11.2,71.2,10.2,71.2
	z"/>
<path class="st0" d="M69.5,63.2h-6c-1,0-1.7-0.8-1.7-1.7c0-1,0.8-1.7,1.7-1.7h6c1,0,1.7,0.8,1.7,1.7C71.3,62.5,70.5,63.2,69.5,63.2z
	"/>
<path class="st0" d="M55.9,63.2H43.3c-1,0-1.7-0.8-1.7-1.7c0-1,0.8-1.7,1.7-1.7h12.6c1,0,1.7,0.8,1.7,1.7
	C57.6,62.5,56.8,63.2,55.9,63.2z"/>
<path class="st0" d="M36.4,63.2H23.2c-1,0-1.7-0.8-1.7-1.7c0-1,0.8-1.7,1.7-1.7h13.1c1,0,1.7,0.8,1.7,1.7
	C38.1,62.5,37.3,63.2,36.4,63.2z"/>
<path class="st0" d="M15.3,63.2H2.7c-1,0-1.7-0.8-1.7-1.7c0-1,0.8-1.7,1.7-1.7h12.6c1,0,1.7,0.8,1.7,1.7
	C17,62.5,16.2,63.2,15.3,63.2z"/>
<path class="st0" d="M69.3,55.2H52.5c-1,0-1.7-0.8-1.7-1.7s0.8-1.7,1.7-1.7h16.9c1,0,1.7,0.8,1.7,1.7S70.3,55.2,69.3,55.2z"/>
<path class="st0" d="M43.6,55.2H30.5c-1,0-1.7-0.8-1.7-1.7s0.8-1.7,1.7-1.7h13.1c1,0,1.7,0.8,1.7,1.7S44.6,55.2,43.6,55.2z"/>
<path class="st0" d="M22.7,55.2H2.5c-1,0-1.7-0.8-1.7-1.7s0.8-1.7,1.7-1.7h20.3c1,0,1.7,0.8,1.7,1.7S23.7,55.2,22.7,55.2z"/>
</svg>
