<?xml version="1.0" encoding="utf-8"?>
<!-- Generator: Adobe Illustrator 26.5.0, SVG Export Plug-In . SVG Version: 6.00 Build 0)  -->
<svg version="1.1" id="vector" xmlns="http://www.w3.org/2000/svg" xmlns:xlink="http://www.w3.org/1999/xlink" x="0px" y="0px"
	 viewBox="0 0 72 72" style="enable-background:new 0 0 72 72;" xml:space="preserve">
<style type="text/css">
	.st0{fill:#B3E5FC;}
	.st1{fill:#F5F5F5;}
	.st2{fill:#FFFFFF;}
</style>
<path id="path_0" class="st0" d="M19.4,46L19.4,46c-0.8-0.5-1.7-0.2-2.1,0.5l-7.5,13c-0.4,0.7-0.2,1.6,0.5,2h0.1
	c0.7,0.4,1.6,0.2,2-0.5l7.5-13C20.3,47.3,20.1,46.4,19.4,46z"/>
<path id="path_1" class="st0" d="M26.6,46L26.6,46c-0.8-0.5-1.7-0.2-2.1,0.5l-7.5,13c-0.4,0.7-0.2,1.6,0.5,2l0.1,0.1
	c0.7,0.4,1.6,0.2,2-0.5l7.5-13C27.5,47.3,27.3,46.4,26.6,46z"/>
<path id="path_2" class="st0" d="M33.8,46L33.8,46c-0.8-0.5-1.7-0.2-2.1,0.5l-7.5,13c-0.4,0.7-0.2,1.6,0.5,2l0.1,0.1
	c0.7,0.4,1.6,0.2,2-0.5l7.5-13C34.7,47.3,34.5,46.4,33.8,46z"/>
<path id="path_3" class="st0" d="M41,46L41,46c-0.8-0.5-1.7-0.2-2.1,0.5l-7.5,13c-0.4,0.7-0.2,1.6,0.5,2l0.1,0.1
	c0.7,0.4,1.6,0.2,2-0.5l7.5-13C41.9,47.3,41.7,46.4,41,46z"/>
<path id="path_4" class="st0" d="M48.2,46L48.2,46c-0.8-0.5-1.7-0.2-2.1,0.5l-7.5,13c-0.4,0.7-0.2,1.6,0.5,2l0.1,0.1
	c0.7,0.4,1.6,0.2,2-0.5l7.5-13C49.1,47.3,48.9,46.4,48.2,46z"/>
<path id="path_5" class="st0" d="M55.4,46L55.4,46c-0.8-0.5-1.7-0.2-2.1,0.5l-7.5,13c-0.4,0.7-0.2,1.6,0.5,2l0.1,0.1
	c0.7,0.4,1.6,0.2,2-0.5l7.5-13C56.3,47.3,56.1,46.4,55.4,46z"/>
<path id="path_6" class="st1" d="M49.5,21c-1.7,0-3.3,0.3-4.8,0.7C41,15.9,34.4,12,27,12C15.4,12,6,21.4,6,33s9.4,21,21,21h22.5
	C58.6,54,66,46.6,66,37.5S58.6,21,49.5,21z"/>
<path id="path_7" class="st2" d="M43.2,64.5c0-0.8,0.7-1.5,1.5-1.5s1.5,0.7,1.5,1.5c0,0.8-0.7,1.5-1.5,1.5S43.2,65.3,43.2,64.5"/>
<path id="path_8" class="st2" d="M36,64.5c0-0.8,0.7-1.5,1.5-1.5s1.5,0.7,1.5,1.5c0,0.8-0.7,1.5-1.5,1.5S36,65.3,36,64.5"/>
<path id="path_9" class="st2" d="M28.8,64.5c0-0.8,0.7-1.5,1.5-1.5s1.5,0.7,1.5,1.5c0,0.8-0.7,1.5-1.5,1.5S28.8,65.3,28.8,64.5"/>
<path id="path_10" class="st2" d="M21.6,64.5c0-0.8,0.7-1.5,1.5-1.5s1.5,0.7,1.5,1.5c0,0.8-0.7,1.5-1.5,1.5S21.6,65.3,21.6,64.5"/>
<path id="path_11" class="st2" d="M14.4,64.5c0-0.8,0.7-1.5,1.5-1.5c0.8,0,1.5,0.7,1.5,1.5c0,0.8-0.7,1.5-1.5,1.5
	C15.1,66,14.4,65.3,14.4,64.5"/>
<path id="path_12" class="st2" d="M7.2,64.5c0-0.8,0.7-1.5,1.5-1.5s1.5,0.7,1.5,1.5c0,0.8-0.7,1.5-1.5,1.5S7.2,65.3,7.2,64.5"/>
</svg>
